<mxfile host="app.diagrams.net" agent="Mozilla/5.0 (Windows NT 10.0; Win64; x64) AppleWebKit/537.36 (KHTML, like Gecko) Chrome/131.0.0.0 Safari/537.36" version="25.0.3">
  <diagram name="Page-1" id="dDL-SM-bmWpjMNlxgqFL">
    <mxGraphModel dx="4903" dy="2327" grid="1" gridSize="10" guides="1" tooltips="1" connect="1" arrows="1" fold="1" page="1" pageScale="1" pageWidth="850" pageHeight="1100" math="0" shadow="0">
      <root>
        <mxCell id="0" />
        <mxCell id="1" parent="0" />
        <UserObject label="" plantUmlData="{&#xa;  &quot;data&quot;: &quot;@startuml\n\n[*] --&gt; LoggedOut\n\nstate LoggedOut {\n    [*] --&gt; AwaitingLogin\n    AwaitingLogin --&gt; LoggedIn : Valid credentials\n    AwaitingLogin --&gt; LoggedOut : Invalid credentials\n}\n\nstate LoggedIn {\n    [*] --&gt; Dashboard\n    Dashboard --&gt; Assessment : \&quot;Start Assessment\&quot;\n    Dashboard --&gt; Roadmap : \&quot;View/Generate Roadmap\&quot;\n    Dashboard --&gt; Community : \&quot;Join/Access Communities\&quot;\n    Dashboard --&gt; Resources : \&quot;Access Learning Resources\&quot;\n    Dashboard --&gt; Mentorship : \&quot;Request Mentorship\&quot;\n    Dashboard --&gt; Feedback : \&quot;Submit Feedback\&quot;\n    Dashboard --&gt; Notifications : \&quot;View Notifications\&quot;\n    Dashboard --&gt; Badges : \&quot;View Earned Badges\&quot;\n    Dashboard --&gt; Certificate : \&quot;Download Certificates\&quot;\n    Dashboard --&gt; Settings : \&quot;Manage Account Settings\&quot;\n    Dashboard --&gt; Logout : \&quot;Log Out\&quot;\n\n    state Assessment {\n        [*] --&gt; SelectingAssessment\n        SelectingAssessment --&gt; TakingAssessment : \&quot;Start\&quot;\n        TakingAssessment --&gt; ViewingResults : \&quot;Submit Answers\&quot;\n        ViewingResults --&gt; Dashboard : \&quot;View Results\&quot;\n    }\n\n    state Roadmap {\n        [*] --&gt; GeneratingRoadmap\n        GeneratingRoadmap --&gt; ViewingRoadmap : \&quot;Roadmap Generated\&quot;\n        ViewingRoadmap --&gt; ModifyingRoadmap : \&quot;Modify Roadmap\&quot;\n        ModifyingRoadmap --&gt; ViewingRoadmap : \&quot;Save Changes\&quot;\n        ViewingRoadmap --&gt; Dashboard : \&quot;Return to Dashboard\&quot;\n    }\n\n    state Community {\n        [*] --&gt; BrowsingCommunities\n        BrowsingCommunities --&gt; ViewingCommunityDetails : \&quot;View Details\&quot;\n        ViewingCommunityDetails --&gt; JoiningCommunity : \&quot;Join Selected Community\&quot;\n        JoiningCommunity --&gt; Dashboard : \&quot;Return to Dashboard\&quot;\n    }\n\n    state Resources {\n        [*] --&gt; ViewingResources\n        ViewingResources --&gt; AccessingResource : \&quot;Select Resource\&quot;\n        AccessingResource --&gt; ViewingResources : \&quot;Finish Using Resource\&quot;\n        ViewingResources --&gt; Dashboard : \&quot;Return to Dashboard\&quot;\n    }\n\n    state Mentorship {\n        [*] --&gt; SearchingMentors\n        SearchingMentors --&gt; ViewingMentorDetails : \&quot;View Mentor Details\&quot;\n        ViewingMentorDetails --&gt; RequestingMentorship : \&quot;Send Request\&quot;\n        RequestingMentorship --&gt; Dashboard : \&quot;Return to Dashboard\&quot;\n    }\n\n    state Feedback {\n        [*] --&gt; SubmittingFeedback\n        SubmittingFeedback --&gt; Dashboard : \&quot;Feedback Submitted\&quot;\n    }\n\n    state Notifications {\n        [*] --&gt; ViewingNotifications\n        ViewingNotifications --&gt; MarkingAsRead : \&quot;Mark Notification as Read\&quot;\n        MarkingAsRead --&gt; ViewingNotifications : \&quot;Return to Notifications\&quot;\n        ViewingNotifications --&gt; Dashboard : \&quot;Return to Dashboard\&quot;\n    }\n\n    state Badges {\n        [*] --&gt; ViewingBadges\n        ViewingBadges --&gt; Dashboard : \&quot;Return to Dashboard\&quot;\n    }\n\n    state Certificate {\n        [*] --&gt; SelectingCertificate\n        SelectingCertificate --&gt; DownloadingCertificate : \&quot;Download Selected\&quot;\n        DownloadingCertificate --&gt; Dashboard : \&quot;Return to Dashboard\&quot;\n    }\n\n    state Settings {\n        [*] --&gt; UpdatingProfile\n        UpdatingProfile --&gt; ChangingPassword : \&quot;Change Password\&quot;\n        ChangingPassword --&gt; Dashboard : \&quot;Save and Return\&quot;\n        UpdatingProfile --&gt; Dashboard : \&quot;Save and Return\&quot;\n    }\n\n    state Logout {\n        [*] --&gt; LoggedOut : \&quot;User Logs Out\&quot;\n    }\n}\n\n@enduml\n&quot;,&#xa;  &quot;format&quot;: &quot;svg&quot;&#xa;}" id="G-UXvK5k3Es1zF9RqEam-1">
          <mxCell style="shape=image;noLabel=1;verticalAlign=top;aspect=fixed;imageAspect=0;image=data:image/svg+xml,PD94bWwgdmVyc2lvbj0iMS4wIiBlbmNvZGluZz0idXMtYXNjaWkiIHN0YW5kYWxvbmU9Im5vIj8+PHN2ZyB4bWxucz0iaHR0cDovL3d3dy53My5vcmcvMjAwMC9zdmciIHhtbG5zOnhsaW5rPSJodHRwOi8vd3d3LnczLm9yZy8xOTk5L3hsaW5rIiBjb250ZW50U3R5bGVUeXBlPSJ0ZXh0L2NzcyIgaGVpZ2h0PSIxMjIxcHgiIHByZXNlcnZlQXNwZWN0UmF0aW89Im5vbmUiIHN0eWxlPSJ3aWR0aDo1MDExcHg7aGVpZ2h0OjEyMjFweDtiYWNrZ3JvdW5kOiNGRkZGRkY7IiB2ZXJzaW9uPSIxLjEiIHZpZXdCb3g9IjAgMCA1MDExIDEyMjEiIHdpZHRoPSI1MDExcHgiIHpvb21BbmRQYW49Im1hZ25pZnkiPjxkZWZzLz48Zz48IS0tY2x1c3RlciBMb2dnZWRPdXQtLT48ZyBpZD0iY2x1c3Rlcl9Mb2dnZWRPdXQiPjxwYXRoIGQ9Ik02Mi41LDcgTDQ5ODUuNSw3IEExMi41LDEyLjUgMCAwIDEgNDk5OCwxOS41IEw0OTk4LDI2Ljk4NDQgTDUwLDI2Ljk4NDQgTDUwLDE5LjUgQTEyLjUsMTIuNSAwIDAgMSA2Mi41LDcgIiBmaWxsPSIjRjFGMUYxIiBzdHlsZT0ic3Ryb2tlOiNGMUYxRjE7c3Ryb2tlLXdpZHRoOjEuMDsiLz48cmVjdCBmaWxsPSJub25lIiBoZWlnaHQ9IjEyMDguNzIiIHJ4PSIxMi41IiByeT0iMTIuNSIgc3R5bGU9InN0cm9rZTojMTgxODE4O3N0cm9rZS13aWR0aDowLjU7IiB3aWR0aD0iNDk0OCIgeD0iNTAiIHk9IjciLz48bGluZSBzdHlsZT0ic3Ryb2tlOiMxODE4MTg7c3Ryb2tlLXdpZHRoOjAuNTsiIHgxPSI1MCIgeDI9IjQ5OTgiIHkxPSIyNi45ODQ0IiB5Mj0iMjYuOTg0NCIvPjx0ZXh0IGZpbGw9IiMwMDAwMDAiIGZvbnQtZmFtaWx5PSJzYW5zLXNlcmlmIiBmb250LXNpemU9IjE0IiBsZW5ndGhBZGp1c3Q9InNwYWNpbmciIHRleHRMZW5ndGg9IjYzIiB4PSIyNDkyLjUiIHk9IjI0LjIzNDQiPkxvZ2dlZE91dDwvdGV4dD48L2c+PCEtLWNsdXN0ZXIgTG9nZ2VkSW4tLT48ZyBpZD0iY2x1c3Rlcl9Mb2dnZWRJbiI+PHBhdGggZD0iTTEwMi41LDI0OCBMNDc4OS41LDI0OCBBMTIuNSwxMi41IDAgMCAxIDQ4MDIsMjYwLjUgTDQ4MDIsMjY3Ljk4NDQgTDkwLDI2Ny45ODQ0IEw5MCwyNjAuNSBBMTIuNSwxMi41IDAgMCAxIDEwMi41LDI0OCAiIGZpbGw9IiNGMUYxRjEiIHN0eWxlPSJzdHJva2U6I0YxRjFGMTtzdHJva2Utd2lkdGg6MS4wOyIvPjxyZWN0IGZpbGw9Im5vbmUiIGhlaWdodD0iODc0IiByeD0iMTIuNSIgcnk9IjEyLjUiIHN0eWxlPSJzdHJva2U6IzE4MTgxODtzdHJva2Utd2lkdGg6MC41OyIgd2lkdGg9IjQ3MTIiIHg9IjkwIiB5PSIyNDgiLz48bGluZSBzdHlsZT0ic3Ryb2tlOiMxODE4MTg7c3Ryb2tlLXdpZHRoOjAuNTsiIHgxPSI5MCIgeDI9IjQ4MDIiIHkxPSIyNjcuOTg0NCIgeTI9IjI2Ny45ODQ0Ii8+PHRleHQgZmlsbD0iIzAwMDAwMCIgZm9udC1mYW1pbHk9InNhbnMtc2VyaWYiIGZvbnQtc2l6ZT0iMTQiIGxlbmd0aEFkanVzdD0ic3BhY2luZyIgdGV4dExlbmd0aD0iNTYiIHg9IjI0MTgiIHk9IjI2NS4yMzQ0Ij5Mb2dnZWRJbjwvdGV4dD48L2c+PCEtLWNsdXN0ZXIgQXNzZXNzbWVudC0tPjxnIGlkPSJjbHVzdGVyX0Fzc2Vzc21lbnQiPjxwYXRoIGQ9Ik0yMjk4LjUsMzA1IEwyNDgzLjUsMzA1IEExMi41LDEyLjUgMCAwIDEgMjQ5NiwzMTcuNSBMMjQ5NiwzMjQuOTg0NCBMMjI4NiwzMjQuOTg0NCBMMjI4NiwzMTcuNSBBMTIuNSwxMi41IDAgMCAxIDIyOTguNSwzMDUgIiBmaWxsPSIjRjFGMUYxIiBzdHlsZT0ic3Ryb2tlOiNGMUYxRjE7c3Ryb2tlLXdpZHRoOjEuMDsiLz48cmVjdCBmaWxsPSJub25lIiBoZWlnaHQ9IjQ4NiIgcng9IjEyLjUiIHJ5PSIxMi41IiBzdHlsZT0ic3Ryb2tlOiMxODE4MTg7c3Ryb2tlLXdpZHRoOjAuNTsiIHdpZHRoPSIyMTAiIHg9IjIyODYiIHk9IjMwNSIvPjxsaW5lIHN0eWxlPSJzdHJva2U6IzE4MTgxODtzdHJva2Utd2lkdGg6MC41OyIgeDE9IjIyODYiIHgyPSIyNDk2IiB5MT0iMzI0Ljk4NDQiIHkyPSIzMjQuOTg0NCIvPjx0ZXh0IGZpbGw9IiMwMDAwMDAiIGZvbnQtZmFtaWx5PSJzYW5zLXNlcmlmIiBmb250LXNpemU9IjE0IiBsZW5ndGhBZGp1c3Q9InNwYWNpbmciIHRleHRMZW5ndGg9IjcxIiB4PSIyMzU1LjUiIHk9IjMyMi4yMzQ0Ij5Bc3Nlc3NtZW50PC90ZXh0PjwvZz48IS0tY2x1c3RlciBSb2FkbWFwLS0+PGcgaWQ9ImNsdXN0ZXJfUm9hZG1hcCI+PHBhdGggZD0iTTQ0MzIuNSw0MjEgTDQ3NDkuNSw0MjEgQTEyLjUsMTIuNSAwIDAgMSA0NzYyLDQzMy41IEw0NzYyLDQ0MC45ODQ0IEw0NDIwLDQ0MC45ODQ0IEw0NDIwLDQzMy41IEExMi41LDEyLjUgMCAwIDEgNDQzMi41LDQyMSAiIGZpbGw9IiNGMUYxRjEiIHN0eWxlPSJzdHJva2U6I0YxRjFGMTtzdHJva2Utd2lkdGg6MS4wOyIvPjxyZWN0IGZpbGw9Im5vbmUiIGhlaWdodD0iNTEzIiByeD0iMTIuNSIgcnk9IjEyLjUiIHN0eWxlPSJzdHJva2U6IzE4MTgxODtzdHJva2Utd2lkdGg6MC41OyIgd2lkdGg9IjM0MiIgeD0iNDQyMCIgeT0iNDIxIi8+PGxpbmUgc3R5bGU9InN0cm9rZTojMTgxODE4O3N0cm9rZS13aWR0aDowLjU7IiB4MT0iNDQyMCIgeDI9IjQ3NjIiIHkxPSI0NDAuOTg0NCIgeTI9IjQ0MC45ODQ0Ii8+PHRleHQgZmlsbD0iIzAwMDAwMCIgZm9udC1mYW1pbHk9InNhbnMtc2VyaWYiIGZvbnQtc2l6ZT0iMTQiIGxlbmd0aEFkanVzdD0ic3BhY2luZyIgdGV4dExlbmd0aD0iNTAiIHg9IjQ1NjYiIHk9IjQzOC4yMzQ0Ij5Sb2FkbWFwPC90ZXh0PjwvZz48IS0tY2x1c3RlciBDb21tdW5pdHktLT48ZyBpZD0iY2x1c3Rlcl9Db21tdW5pdHkiPjxwYXRoIGQ9Ik0xNjUzLjUsMzA1IEwxODg5LjUsMzA1IEExMi41LDEyLjUgMCAwIDEgMTkwMiwzMTcuNSBMMTkwMiwzMjQuOTg0NCBMMTY0MSwzMjQuOTg0NCBMMTY0MSwzMTcuNSBBMTIuNSwxMi41IDAgMCAxIDE2NTMuNSwzMDUgIiBmaWxsPSIjRjFGMUYxIiBzdHlsZT0ic3Ryb2tlOiNGMUYxRjE7c3Ryb2tlLXdpZHRoOjEuMDsiLz48cmVjdCBmaWxsPSJub25lIiBoZWlnaHQ9IjQ4NiIgcng9IjEyLjUiIHJ5PSIxMi41IiBzdHlsZT0ic3Ryb2tlOiMxODE4MTg7c3Ryb2tlLXdpZHRoOjAuNTsiIHdpZHRoPSIyNjEiIHg9IjE2NDEiIHk9IjMwNSIvPjxsaW5lIHN0eWxlPSJzdHJva2U6IzE4MTgxODtzdHJva2Utd2lkdGg6MC41OyIgeDE9IjE2NDEiIHgyPSIxOTAyIiB5MT0iMzI0Ljk4NDQiIHkyPSIzMjQuOTg0NCIvPjx0ZXh0IGZpbGw9IiMwMDAwMDAiIGZvbnQtZmFtaWx5PSJzYW5zLXNlcmlmIiBmb250LXNpemU9IjE0IiBsZW5ndGhBZGp1c3Q9InNwYWNpbmciIHRleHRMZW5ndGg9IjY1IiB4PSIxNzM5IiB5PSIzMjIuMjM0NCI+Q29tbXVuaXR5PC90ZXh0PjwvZz48IS0tY2x1c3RlciBSZXNvdXJjZXMtLT48ZyBpZD0iY2x1c3Rlcl9SZXNvdXJjZXMiPjxwYXRoIGQ9Ik0zNTk4LjUsNTY2IEwzOTgzLjUsNTY2IEExMi41LDEyLjUgMCAwIDEgMzk5Niw1NzguNSBMMzk5Niw1ODUuOTg0NCBMMzU4Niw1ODUuOTg0NCBMMzU4Niw1NzguNSBBMTIuNSwxMi41IDAgMCAxIDM1OTguNSw1NjYgIiBmaWxsPSIjRjFGMUYxIiBzdHlsZT0ic3Ryb2tlOiNGMUYxRjE7c3Ryb2tlLXdpZHRoOjEuMDsiLz48cmVjdCBmaWxsPSJub25lIiBoZWlnaHQ9IjM2OCIgcng9IjEyLjUiIHJ5PSIxMi41IiBzdHlsZT0ic3Ryb2tlOiMxODE4MTg7c3Ryb2tlLXdpZHRoOjAuNTsiIHdpZHRoPSI0MTAiIHg9IjM1ODYiIHk9IjU2NiIvPjxsaW5lIHN0eWxlPSJzdHJva2U6IzE4MTgxODtzdHJva2Utd2lkdGg6MC41OyIgeDE9IjM1ODYiIHgyPSIzOTk2IiB5MT0iNTg1Ljk4NDQiIHkyPSI1ODUuOTg0NCIvPjx0ZXh0IGZpbGw9IiMwMDAwMDAiIGZvbnQtZmFtaWx5PSJzYW5zLXNlcmlmIiBmb250LXNpemU9IjE0IiBsZW5ndGhBZGp1c3Q9InNwYWNpbmciIHRleHRMZW5ndGg9IjYzIiB4PSIzNzU5LjUiIHk9IjU4My4yMzQ0Ij5SZXNvdXJjZXM8L3RleHQ+PC9nPjwhLS1jbHVzdGVyIE1lbnRvcnNoaXAtLT48ZyBpZD0iY2x1c3Rlcl9NZW50b3JzaGlwIj48cGF0aCBkPSJNODIwLjUsMzA1IEwxMDI5LjUsMzA1IEExMi41LDEyLjUgMCAwIDEgMTA0MiwzMTcuNSBMMTA0MiwzMjQuOTg0NCBMODA4LDMyNC45ODQ0IEw4MDgsMzE3LjUgQTEyLjUsMTIuNSAwIDAgMSA4MjAuNSwzMDUgIiBmaWxsPSIjRjFGMUYxIiBzdHlsZT0ic3Ryb2tlOiNGMUYxRjE7c3Ryb2tlLXdpZHRoOjEuMDsiLz48cmVjdCBmaWxsPSJub25lIiBoZWlnaHQ9IjQ4NiIgcng9IjEyLjUiIHJ5PSIxMi41IiBzdHlsZT0ic3Ryb2tlOiMxODE4MTg7c3Ryb2tlLXdpZHRoOjAuNTsiIHdpZHRoPSIyMzQiIHg9IjgwOCIgeT0iMzA1Ii8+PGxpbmUgc3R5bGU9InN0cm9rZTojMTgxODE4O3N0cm9rZS13aWR0aDowLjU7IiB4MT0iODA4IiB4Mj0iMTA0MiIgeTE9IjMyNC45ODQ0IiB5Mj0iMzI0Ljk4NDQiLz48dGV4dCBmaWxsPSIjMDAwMDAwIiBmb250LWZhbWlseT0ic2Fucy1zZXJpZiIgZm9udC1zaXplPSIxNCIgbGVuZ3RoQWRqdXN0PSJzcGFjaW5nIiB0ZXh0TGVuZ3RoPSI3MCIgeD0iODkwIiB5PSIzMjIuMjM0NCI+TWVudG9yc2hpcDwvdGV4dD48L2c+PCEtLWNsdXN0ZXIgRmVlZGJhY2stLT48ZyBpZD0iY2x1c3Rlcl9GZWVkYmFjayI+PHBhdGggZD0iTTQwNDguNSw1NjYgTDQyMjcuNSw1NjYgQTEyLjUsMTIuNSAwIDAgMSA0MjQwLDU3OC41IEw0MjQwLDU4NS45ODQ0IEw0MDM2LDU4NS45ODQ0IEw0MDM2LDU3OC41IEExMi41LDEyLjUgMCAwIDEgNDA0OC41LDU2NiAiIGZpbGw9IiNGMUYxRjEiIHN0eWxlPSJzdHJva2U6I0YxRjFGMTtzdHJva2Utd2lkdGg6MS4wOyIvPjxyZWN0IGZpbGw9Im5vbmUiIGhlaWdodD0iMjI1IiByeD0iMTIuNSIgcnk9IjEyLjUiIHN0eWxlPSJzdHJva2U6IzE4MTgxODtzdHJva2Utd2lkdGg6MC41OyIgd2lkdGg9IjIwNCIgeD0iNDAzNiIgeT0iNTY2Ii8+PGxpbmUgc3R5bGU9InN0cm9rZTojMTgxODE4O3N0cm9rZS13aWR0aDowLjU7IiB4MT0iNDAzNiIgeDI9IjQyNDAiIHkxPSI1ODUuOTg0NCIgeTI9IjU4NS45ODQ0Ii8+PHRleHQgZmlsbD0iIzAwMDAwMCIgZm9udC1mYW1pbHk9InNhbnMtc2VyaWYiIGZvbnQtc2l6ZT0iMTQiIGxlbmd0aEFkanVzdD0ic3BhY2luZyIgdGV4dExlbmd0aD0iNTYiIHg9IjQxMTAiIHk9IjU4My4yMzQ0Ij5GZWVkYmFjazwvdGV4dD48L2c+PCEtLWNsdXN0ZXIgTm90aWZpY2F0aW9ucy0tPjxnIGlkPSJjbHVzdGVyX05vdGlmaWNhdGlvbnMiPjxwYXRoIGQ9Ik0xNTAuNSw1NjYgTDYxMC41LDU2NiBBMTIuNSwxMi41IDAgMCAxIDYyMyw1NzguNSBMNjIzLDU4NS45ODQ0IEwxMzgsNTg1Ljk4NDQgTDEzOCw1NzguNSBBMTIuNSwxMi41IDAgMCAxIDE1MC41LDU2NiAiIGZpbGw9IiNGMUYxRjEiIHN0eWxlPSJzdHJva2U6I0YxRjFGMTtzdHJva2Utd2lkdGg6MS4wOyIvPjxyZWN0IGZpbGw9Im5vbmUiIGhlaWdodD0iMzY4IiByeD0iMTIuNSIgcnk9IjEyLjUiIHN0eWxlPSJzdHJva2U6IzE4MTgxODtzdHJva2Utd2lkdGg6MC41OyIgd2lkdGg9IjQ4NSIgeD0iMTM4IiB5PSI1NjYiLz48bGluZSBzdHlsZT0ic3Ryb2tlOiMxODE4MTg7c3Ryb2tlLXdpZHRoOjAuNTsiIHgxPSIxMzgiIHgyPSI2MjMiIHkxPSI1ODUuOTg0NCIgeTI9IjU4NS45ODQ0Ii8+PHRleHQgZmlsbD0iIzAwMDAwMCIgZm9udC1mYW1pbHk9InNhbnMtc2VyaWYiIGZvbnQtc2l6ZT0iMTQiIGxlbmd0aEFkanVzdD0ic3BhY2luZyIgdGV4dExlbmd0aD0iOTEiIHg9IjMzNSIgeT0iNTgzLjIzNDQiPk5vdGlmaWNhdGlvbnM8L3RleHQ+PC9nPjwhLS1jbHVzdGVyIEJhZGdlcy0tPjxnIGlkPSJjbHVzdGVyX0JhZGdlcyI+PHBhdGggZD0iTTMxODkuNSw1NjYgTDMzMzIuNSw1NjYgQTEyLjUsMTIuNSAwIDAgMSAzMzQ1LDU3OC41IEwzMzQ1LDU4NS45ODQ0IEwzMTc3LDU4NS45ODQ0IEwzMTc3LDU3OC41IEExMi41LDEyLjUgMCAwIDEgMzE4OS41LDU2NiAiIGZpbGw9IiNGMUYxRjEiIHN0eWxlPSJzdHJva2U6I0YxRjFGMTtzdHJva2Utd2lkdGg6MS4wOyIvPjxyZWN0IGZpbGw9Im5vbmUiIGhlaWdodD0iMjI1IiByeD0iMTIuNSIgcnk9IjEyLjUiIHN0eWxlPSJzdHJva2U6IzE4MTgxODtzdHJva2Utd2lkdGg6MC41OyIgd2lkdGg9IjE2OCIgeD0iMzE3NyIgeT0iNTY2Ii8+PGxpbmUgc3R5bGU9InN0cm9rZTojMTgxODE4O3N0cm9rZS13aWR0aDowLjU7IiB4MT0iMzE3NyIgeDI9IjMzNDUiIHkxPSI1ODUuOTg0NCIgeTI9IjU4NS45ODQ0Ii8+PHRleHQgZmlsbD0iIzAwMDAwMCIgZm9udC1mYW1pbHk9InNhbnMtc2VyaWYiIGZvbnQtc2l6ZT0iMTQiIGxlbmd0aEFkanVzdD0ic3BhY2luZyIgdGV4dExlbmd0aD0iNDIiIHg9IjMyNDAiIHk9IjU4My4yMzQ0Ij5CYWRnZXM8L3RleHQ+PC9nPjwhLS1jbHVzdGVyIENlcnRpZmljYXRlLS0+PGcgaWQ9ImNsdXN0ZXJfQ2VydGlmaWNhdGUiPjxwYXRoIGQ9Ik0yNzE1LjUsNDIxIEwyOTIyLjUsNDIxIEExMi41LDEyLjUgMCAwIDEgMjkzNSw0MzMuNSBMMjkzNSw0NDAuOTg0NCBMMjcwMyw0NDAuOTg0NCBMMjcwMyw0MzMuNSBBMTIuNSwxMi41IDAgMCAxIDI3MTUuNSw0MjEgIiBmaWxsPSIjRjFGMUYxIiBzdHlsZT0ic3Ryb2tlOiNGMUYxRjE7c3Ryb2tlLXdpZHRoOjEuMDsiLz48cmVjdCBmaWxsPSJub25lIiBoZWlnaHQ9IjM3MCIgcng9IjEyLjUiIHJ5PSIxMi41IiBzdHlsZT0ic3Ryb2tlOiMxODE4MTg7c3Ryb2tlLXdpZHRoOjAuNTsiIHdpZHRoPSIyMzIiIHg9IjI3MDMiIHk9IjQyMSIvPjxsaW5lIHN0eWxlPSJzdHJva2U6IzE4MTgxODtzdHJva2Utd2lkdGg6MC41OyIgeDE9IjI3MDMiIHgyPSIyOTM1IiB5MT0iNDQwLjk4NDQiIHkyPSI0NDAuOTg0NCIvPjx0ZXh0IGZpbGw9IiMwMDAwMDAiIGZvbnQtZmFtaWx5PSJzYW5zLXNlcmlmIiBmb250LXNpemU9IjE0IiBsZW5ndGhBZGp1c3Q9InNwYWNpbmciIHRleHRMZW5ndGg9Ijc3IiB4PSIyNzgwLjUiIHk9IjQzOC4yMzQ0Ij5DZXJ0aWZpY2F0ZTwvdGV4dD48L2c+PCEtLWNsdXN0ZXIgU2V0dGluZ3MtLT48ZyBpZD0iY2x1c3Rlcl9TZXR0aW5ncyI+PHBhdGggZD0iTTEwOTQuNSw1NjYgTDEyODAuNSw1NjYgQTEyLjUsMTIuNSAwIDAgMSAxMjkzLDU3OC41IEwxMjkzLDU4NS45ODQ0IEwxMDgyLDU4NS45ODQ0IEwxMDgyLDU3OC41IEExMi41LDEyLjUgMCAwIDEgMTA5NC41LDU2NiAiIGZpbGw9IiNGMUYxRjEiIHN0eWxlPSJzdHJva2U6I0YxRjFGMTtzdHJva2Utd2lkdGg6MS4wOyIvPjxyZWN0IGZpbGw9Im5vbmUiIGhlaWdodD0iMzY4IiByeD0iMTIuNSIgcnk9IjEyLjUiIHN0eWxlPSJzdHJva2U6IzE4MTgxODtzdHJva2Utd2lkdGg6MC41OyIgd2lkdGg9IjIxMSIgeD0iMTA4MiIgeT0iNTY2Ii8+PGxpbmUgc3R5bGU9InN0cm9rZTojMTgxODE4O3N0cm9rZS13aWR0aDowLjU7IiB4MT0iMTA4MiIgeDI9IjEyOTMiIHkxPSI1ODUuOTg0NCIgeTI9IjU4NS45ODQ0Ii8+PHRleHQgZmlsbD0iIzAwMDAwMCIgZm9udC1mYW1pbHk9InNhbnMtc2VyaWYiIGZvbnQtc2l6ZT0iMTQiIGxlbmd0aEFkanVzdD0ic3BhY2luZyIgdGV4dExlbmd0aD0iNTYiIHg9IjExNTkuNSIgeT0iNTgzLjIzNDQiPlNldHRpbmdzPC90ZXh0PjwvZz48IS0tY2x1c3RlciBMb2dvdXQtLT48ZyBpZD0iY2x1c3Rlcl9Mb2dvdXQiPjxwYXRoIGQ9Ik0yMjM2LjUsOTk3IEwyMjk4LjUsOTk3IEExMi41LDEyLjUgMCAwIDEgMjMxMSwxMDA5LjUgTDIzMTEsMTAxNi45ODQ0IEwyMjI0LDEwMTYuOTg0NCBMMjIyNCwxMDA5LjUgQTEyLjUsMTIuNSAwIDAgMSAyMjM2LjUsOTk3ICIgZmlsbD0iI0YxRjFGMSIgc3R5bGU9InN0cm9rZTojRjFGMUYxO3N0cm9rZS13aWR0aDoxLjA7Ii8+PHJlY3QgZmlsbD0ibm9uZSIgaGVpZ2h0PSI4NSIgcng9IjEyLjUiIHJ5PSIxMi41IiBzdHlsZT0ic3Ryb2tlOiMxODE4MTg7c3Ryb2tlLXdpZHRoOjAuNTsiIHdpZHRoPSI4NyIgeD0iMjIyNCIgeT0iOTk3Ii8+PGxpbmUgc3R5bGU9InN0cm9rZTojMTgxODE4O3N0cm9rZS13aWR0aDowLjU7IiB4MT0iMjIyNCIgeDI9IjIzMTEiIHkxPSIxMDE2Ljk4NDQiIHkyPSIxMDE2Ljk4NDQiLz48dGV4dCBmaWxsPSIjMDAwMDAwIiBmb250LWZhbWlseT0ic2Fucy1zZXJpZiIgZm9udC1zaXplPSIxNCIgbGVuZ3RoQWRqdXN0PSJzcGFjaW5nIiB0ZXh0TGVuZ3RoPSI0MiIgeD0iMjI0Ni41IiB5PSIxMDE0LjIzNDQiPkxvZ291dDwvdGV4dD48L2c+PGVsbGlwc2UgY3g9IjI0MTYiIGN5PSI1OCIgZmlsbD0iIzIyMjIyMiIgcng9IjEwIiByeT0iMTAiIHN0eWxlPSJzdHJva2U6IzIyMjIyMjtzdHJva2Utd2lkdGg6MS4wOyIvPjxnIGlkPSJMb2dnZWRPdXQuQXdhaXRpbmdMb2dpbiI+PHJlY3QgZmlsbD0iI0YxRjFGMSIgaGVpZ2h0PSI1MCIgcng9IjEyLjUiIHJ5PSIxMi41IiBzdHlsZT0ic3Ryb2tlOiMxODE4MTg7c3Ryb2tlLXdpZHRoOjAuNTsiIHdpZHRoPSIxMTIiIHg9IjIzNjAiIHk9IjEyOSIvPjxsaW5lIHN0eWxlPSJzdHJva2U6IzE4MTgxODtzdHJva2Utd2lkdGg6MC41OyIgeDE9IjIzNjAiIHgyPSIyNDcyIiB5MT0iMTUzLjk4NDQiIHkyPSIxNTMuOTg0NCIvPjx0ZXh0IGZpbGw9IiMwMDAwMDAiIGZvbnQtZmFtaWx5PSJzYW5zLXNlcmlmIiBmb250LXNpemU9IjE0IiBsZW5ndGhBZGp1c3Q9InNwYWNpbmciIHRleHRMZW5ndGg9IjkyIiB4PSIyMzcwIiB5PSIxNDcuMjM0NCI+QXdhaXRpbmdMb2dpbjwvdGV4dD48L2c+PGVsbGlwc2UgY3g9IjEzMjciIGN5PSI3NDIiIGZpbGw9IiMyMjIyMjIiIHJ4PSIxMCIgcnk9IjEwIiBzdHlsZT0ic3Ryb2tlOiMyMjIyMjI7c3Ryb2tlLXdpZHRoOjEuMDsiLz48ZyBpZD0iTG9nZ2VkT3V0LkxvZ2dlZEluLkRhc2hib2FyZCI+PHJlY3QgZmlsbD0iI0YxRjFGMSIgaGVpZ2h0PSI1MCIgcng9IjEyLjUiIHJ5PSIxMi41IiBzdHlsZT0ic3Ryb2tlOiMxODE4MTg7c3Ryb2tlLXdpZHRoOjAuNTsiIHdpZHRoPSI4MyIgeD0iMjE5MC41IiB5PSI4NjAiLz48bGluZSBzdHlsZT0ic3Ryb2tlOiMxODE4MTg7c3Ryb2tlLXdpZHRoOjAuNTsiIHgxPSIyMTkwLjUiIHgyPSIyMjczLjUiIHkxPSI4ODQuOTg0NCIgeTI9Ijg4NC45ODQ0Ii8+PHRleHQgZmlsbD0iIzAwMDAwMCIgZm9udC1mYW1pbHk9InNhbnMtc2VyaWYiIGZvbnQtc2l6ZT0iMTQiIGxlbmd0aEFkanVzdD0ic3BhY2luZyIgdGV4dExlbmd0aD0iNjMiIHg9IjIyMDAuNSIgeT0iODc4LjIzNDQiPkRhc2hib2FyZDwvdGV4dD48L2c+PGVsbGlwc2UgY3g9IjIzOTUiIGN5PSIzNTYiIGZpbGw9IiMyMjIyMjIiIHJ4PSIxMCIgcnk9IjEwIiBzdHlsZT0ic3Ryb2tlOiMyMjIyMjI7c3Ryb2tlLXdpZHRoOjEuMDsiLz48ZyBpZD0iTG9nZ2VkT3V0LkxvZ2dlZEluLkFzc2Vzc21lbnQuU2VsZWN0aW5nQXNzZXNzbWVudCI+PHJlY3QgZmlsbD0iI0YxRjFGMSIgaGVpZ2h0PSI1MCIgcng9IjEyLjUiIHJ5PSIxMi41IiBzdHlsZT0ic3Ryb2tlOiMxODE4MTg7c3Ryb2tlLXdpZHRoOjAuNTsiIHdpZHRoPSIxNTQiIHg9IjIzMTgiIHk9IjQ0NyIvPjxsaW5lIHN0eWxlPSJzdHJva2U6IzE4MTgxODtzdHJva2Utd2lkdGg6MC41OyIgeDE9IjIzMTgiIHgyPSIyNDcyIiB5MT0iNDcxLjk4NDQiIHkyPSI0NzEuOTg0NCIvPjx0ZXh0IGZpbGw9IiMwMDAwMDAiIGZvbnQtZmFtaWx5PSJzYW5zLXNlcmlmIiBmb250LXNpemU9IjE0IiBsZW5ndGhBZGp1c3Q9InNwYWNpbmciIHRleHRMZW5ndGg9IjEzNCIgeD0iMjMyOCIgeT0iNDY1LjIzNDQiPlNlbGVjdGluZ0Fzc2Vzc21lbnQ8L3RleHQ+PC9nPjxnIGlkPSJMb2dnZWRPdXQuTG9nZ2VkSW4uQXNzZXNzbWVudC5UYWtpbmdBc3Nlc3NtZW50Ij48cmVjdCBmaWxsPSIjRjFGMUYxIiBoZWlnaHQ9IjUwIiByeD0iMTIuNSIgcnk9IjEyLjUiIHN0eWxlPSJzdHJva2U6IzE4MTgxODtzdHJva2Utd2lkdGg6MC41OyIgd2lkdGg9IjEzMyIgeD0iMjMyOS41IiB5PSI1OTIiLz48bGluZSBzdHlsZT0ic3Ryb2tlOiMxODE4MTg7c3Ryb2tlLXdpZHRoOjAuNTsiIHgxPSIyMzI5LjUiIHgyPSIyNDYyLjUiIHkxPSI2MTYuOTg0NCIgeTI9IjYxNi45ODQ0Ii8+PHRleHQgZmlsbD0iIzAwMDAwMCIgZm9udC1mYW1pbHk9InNhbnMtc2VyaWYiIGZvbnQtc2l6ZT0iMTQiIGxlbmd0aEFkanVzdD0ic3BhY2luZyIgdGV4dExlbmd0aD0iMTEzIiB4PSIyMzM5LjUiIHk9IjYxMC4yMzQ0Ij5UYWtpbmdBc3Nlc3NtZW50PC90ZXh0PjwvZz48ZyBpZD0iTG9nZ2VkT3V0LkxvZ2dlZEluLkFzc2Vzc21lbnQuVmlld2luZ1Jlc3VsdHMiPjxyZWN0IGZpbGw9IiNGMUYxRjEiIGhlaWdodD0iNTAiIHJ4PSIxMi41IiByeT0iMTIuNSIgc3R5bGU9InN0cm9rZTojMTgxODE4O3N0cm9rZS13aWR0aDowLjU7IiB3aWR0aD0iMTE5IiB4PSIyMzE4LjUiIHk9IjcxNyIvPjxsaW5lIHN0eWxlPSJzdHJva2U6IzE4MTgxODtzdHJva2Utd2lkdGg6MC41OyIgeDE9IjIzMTguNSIgeDI9IjI0MzcuNSIgeTE9Ijc0MS45ODQ0IiB5Mj0iNzQxLjk4NDQiLz48dGV4dCBmaWxsPSIjMDAwMDAwIiBmb250LWZhbWlseT0ic2Fucy1zZXJpZiIgZm9udC1zaXplPSIxNCIgbGVuZ3RoQWRqdXN0PSJzcGFjaW5nIiB0ZXh0TGVuZ3RoPSI5OSIgeD0iMjMyOC41IiB5PSI3MzUuMjM0NCI+Vmlld2luZ1Jlc3VsdHM8L3RleHQ+PC9nPjxlbGxpcHNlIGN4PSI0NTIyIiBjeT0iNDcyIiBmaWxsPSIjMjIyMjIyIiByeD0iMTAiIHJ5PSIxMCIgc3R5bGU9InN0cm9rZTojMjIyMjIyO3N0cm9rZS13aWR0aDoxLjA7Ii8+PGcgaWQ9IkxvZ2dlZE91dC5Mb2dnZWRJbi5Sb2FkbWFwLkdlbmVyYXRpbmdSb2FkbWFwIj48cmVjdCBmaWxsPSIjRjFGMUYxIiBoZWlnaHQ9IjUwIiByeD0iMTIuNSIgcnk9IjEyLjUiIHN0eWxlPSJzdHJva2U6IzE4MTgxODtzdHJva2Utd2lkdGg6MC41OyIgd2lkdGg9IjE0MCIgeD0iNDQ1MiIgeT0iNTkyIi8+PGxpbmUgc3R5bGU9InN0cm9rZTojMTgxODE4O3N0cm9rZS13aWR0aDowLjU7IiB4MT0iNDQ1MiIgeDI9IjQ1OTIiIHkxPSI2MTYuOTg0NCIgeTI9IjYxNi45ODQ0Ii8+PHRleHQgZmlsbD0iIzAwMDAwMCIgZm9udC1mYW1pbHk9InNhbnMtc2VyaWYiIGZvbnQtc2l6ZT0iMTQiIGxlbmd0aEFkanVzdD0ic3BhY2luZyIgdGV4dExlbmd0aD0iMTIwIiB4PSI0NDYyIiB5PSI2MTAuMjM0NCI+R2VuZXJhdGluZ1JvYWRtYXA8L3RleHQ+PC9nPjxnIGlkPSJMb2dnZWRPdXQuTG9nZ2VkSW4uUm9hZG1hcC5WaWV3aW5nUm9hZG1hcCI+PHJlY3QgZmlsbD0iI0YxRjFGMSIgaGVpZ2h0PSI1MCIgcng9IjEyLjUiIHJ5PSIxMi41IiBzdHlsZT0ic3Ryb2tlOiMxODE4MTg7c3Ryb2tlLXdpZHRoOjAuNTsiIHdpZHRoPSIxMjAiIHg9IjQ0NTciIHk9IjcxNyIvPjxsaW5lIHN0eWxlPSJzdHJva2U6IzE4MTgxODtzdHJva2Utd2lkdGg6MC41OyIgeDE9IjQ0NTciIHgyPSI0NTc3IiB5MT0iNzQxLjk4NDQiIHkyPSI3NDEuOTg0NCIvPjx0ZXh0IGZpbGw9IiMwMDAwMDAiIGZvbnQtZmFtaWx5PSJzYW5zLXNlcmlmIiBmb250LXNpemU9IjE0IiBsZW5ndGhBZGp1c3Q9InNwYWNpbmciIHRleHRMZW5ndGg9IjEwMCIgeD0iNDQ2NyIgeT0iNzM1LjIzNDQiPlZpZXdpbmdSb2FkbWFwPC90ZXh0PjwvZz48ZyBpZD0iTG9nZ2VkT3V0LkxvZ2dlZEluLlJvYWRtYXAuTW9kaWZ5aW5nUm9hZG1hcCI+PHJlY3QgZmlsbD0iI0YxRjFGMSIgaGVpZ2h0PSI1MCIgcng9IjEyLjUiIHJ5PSIxMi41IiBzdHlsZT0ic3Ryb2tlOiMxODE4MTg7c3Ryb2tlLXdpZHRoOjAuNTsiIHdpZHRoPSIxMzMiIHg9IjQ1MTEuNSIgeT0iODYwIi8+PGxpbmUgc3R5bGU9InN0cm9rZTojMTgxODE4O3N0cm9rZS13aWR0aDowLjU7IiB4MT0iNDUxMS41IiB4Mj0iNDY0NC41IiB5MT0iODg0Ljk4NDQiIHkyPSI4ODQuOTg0NCIvPjx0ZXh0IGZpbGw9IiMwMDAwMDAiIGZvbnQtZmFtaWx5PSJzYW5zLXNlcmlmIiBmb250LXNpemU9IjE0IiBsZW5ndGhBZGp1c3Q9InNwYWNpbmciIHRleHRMZW5ndGg9IjExMyIgeD0iNDUyMS41IiB5PSI4NzguMjM0NCI+TW9kaWZ5aW5nUm9hZG1hcDwvdGV4dD48L2c+PGVsbGlwc2UgY3g9IjE3NTciIGN5PSIzNTYiIGZpbGw9IiMyMjIyMjIiIHJ4PSIxMCIgcnk9IjEwIiBzdHlsZT0ic3Ryb2tlOiMyMjIyMjI7c3Ryb2tlLXdpZHRoOjEuMDsiLz48ZyBpZD0iTG9nZ2VkT3V0LkxvZ2dlZEluLkNvbW11bml0eS5Ccm93c2luZ0NvbW11bml0aWVzIj48cmVjdCBmaWxsPSIjRjFGMUYxIiBoZWlnaHQ9IjUwIiByeD0iMTIuNSIgcnk9IjEyLjUiIHN0eWxlPSJzdHJva2U6IzE4MTgxODtzdHJva2Utd2lkdGg6MC41OyIgd2lkdGg9IjE1NiIgeD0iMTY3OSIgeT0iNDQ3Ii8+PGxpbmUgc3R5bGU9InN0cm9rZTojMTgxODE4O3N0cm9rZS13aWR0aDowLjU7IiB4MT0iMTY3OSIgeDI9IjE4MzUiIHkxPSI0NzEuOTg0NCIgeTI9IjQ3MS45ODQ0Ii8+PHRleHQgZmlsbD0iIzAwMDAwMCIgZm9udC1mYW1pbHk9InNhbnMtc2VyaWYiIGZvbnQtc2l6ZT0iMTQiIGxlbmd0aEFkanVzdD0ic3BhY2luZyIgdGV4dExlbmd0aD0iMTM2IiB4PSIxNjg5IiB5PSI0NjUuMjM0NCI+QnJvd3NpbmdDb21tdW5pdGllczwvdGV4dD48L2c+PGcgaWQ9IkxvZ2dlZE91dC5Mb2dnZWRJbi5Db21tdW5pdHkuVmlld2luZ0NvbW11bml0eURldGFpbHMiPjxyZWN0IGZpbGw9IiNGMUYxRjEiIGhlaWdodD0iNTAiIHJ4PSIxMi41IiByeT0iMTIuNSIgc3R5bGU9InN0cm9rZTojMTgxODE4O3N0cm9rZS13aWR0aDowLjU7IiB3aWR0aD0iMTg0IiB4PSIxNjY1IiB5PSI1OTIiLz48bGluZSBzdHlsZT0ic3Ryb2tlOiMxODE4MTg7c3Ryb2tlLXdpZHRoOjAuNTsiIHgxPSIxNjY1IiB4Mj0iMTg0OSIgeTE9IjYxNi45ODQ0IiB5Mj0iNjE2Ljk4NDQiLz48dGV4dCBmaWxsPSIjMDAwMDAwIiBmb250LWZhbWlseT0ic2Fucy1zZXJpZiIgZm9udC1zaXplPSIxNCIgbGVuZ3RoQWRqdXN0PSJzcGFjaW5nIiB0ZXh0TGVuZ3RoPSIxNjQiIHg9IjE2NzUiIHk9IjYxMC4yMzQ0Ij5WaWV3aW5nQ29tbXVuaXR5RGV0YWlsczwvdGV4dD48L2c+PGcgaWQ9IkxvZ2dlZE91dC5Mb2dnZWRJbi5Db21tdW5pdHkuSm9pbmluZ0NvbW11bml0eSI+PHJlY3QgZmlsbD0iI0YxRjFGMSIgaGVpZ2h0PSI1MCIgcng9IjEyLjUiIHJ5PSIxMi41IiBzdHlsZT0ic3Ryb2tlOiMxODE4MTg7c3Ryb2tlLXdpZHRoOjAuNTsiIHdpZHRoPSIxMzUiIHg9IjE2NzYuNSIgeT0iNzE3Ii8+PGxpbmUgc3R5bGU9InN0cm9rZTojMTgxODE4O3N0cm9rZS13aWR0aDowLjU7IiB4MT0iMTY3Ni41IiB4Mj0iMTgxMS41IiB5MT0iNzQxLjk4NDQiIHkyPSI3NDEuOTg0NCIvPjx0ZXh0IGZpbGw9IiMwMDAwMDAiIGZvbnQtZmFtaWx5PSJzYW5zLXNlcmlmIiBmb250LXNpemU9IjE0IiBsZW5ndGhBZGp1c3Q9InNwYWNpbmciIHRleHRMZW5ndGg9IjExNSIgeD0iMTY4Ni41IiB5PSI3MzUuMjM0NCI+Sm9pbmluZ0NvbW11bml0eTwvdGV4dD48L2c+PGVsbGlwc2UgY3g9IjM2OTYiIGN5PSI2MTciIGZpbGw9IiMyMjIyMjIiIHJ4PSIxMCIgcnk9IjEwIiBzdHlsZT0ic3Ryb2tlOiMyMjIyMjI7c3Ryb2tlLXdpZHRoOjEuMDsiLz48ZyBpZD0iTG9nZ2VkT3V0LkxvZ2dlZEluLlJlc291cmNlcy5WaWV3aW5nUmVzb3VyY2VzIj48cmVjdCBmaWxsPSIjRjFGMUYxIiBoZWlnaHQ9IjUwIiByeD0iMTIuNSIgcnk9IjEyLjUiIHN0eWxlPSJzdHJva2U6IzE4MTgxODtzdHJva2Utd2lkdGg6MC41OyIgd2lkdGg9IjEzMyIgeD0iMzYyOS41IiB5PSI3MTciLz48bGluZSBzdHlsZT0ic3Ryb2tlOiMxODE4MTg7c3Ryb2tlLXdpZHRoOjAuNTsiIHgxPSIzNjI5LjUiIHgyPSIzNzYyLjUiIHkxPSI3NDEuOTg0NCIgeTI9Ijc0MS45ODQ0Ii8+PHRleHQgZmlsbD0iIzAwMDAwMCIgZm9udC1mYW1pbHk9InNhbnMtc2VyaWYiIGZvbnQtc2l6ZT0iMTQiIGxlbmd0aEFkanVzdD0ic3BhY2luZyIgdGV4dExlbmd0aD0iMTEzIiB4PSIzNjM5LjUiIHk9IjczNS4yMzQ0Ij5WaWV3aW5nUmVzb3VyY2VzPC90ZXh0PjwvZz48ZyBpZD0iTG9nZ2VkT3V0LkxvZ2dlZEluLlJlc291cmNlcy5BY2Nlc3NpbmdSZXNvdXJjZSI+PHJlY3QgZmlsbD0iI0YxRjFGMSIgaGVpZ2h0PSI1MCIgcng9IjEyLjUiIHJ5PSIxMi41IiBzdHlsZT0ic3Ryb2tlOiMxODE4MTg7c3Ryb2tlLXdpZHRoOjAuNTsiIHdpZHRoPSIxMzkiIHg9IjM2ODAuNSIgeT0iODYwIi8+PGxpbmUgc3R5bGU9InN0cm9rZTojMTgxODE4O3N0cm9rZS13aWR0aDowLjU7IiB4MT0iMzY4MC41IiB4Mj0iMzgxOS41IiB5MT0iODg0Ljk4NDQiIHkyPSI4ODQuOTg0NCIvPjx0ZXh0IGZpbGw9IiMwMDAwMDAiIGZvbnQtZmFtaWx5PSJzYW5zLXNlcmlmIiBmb250LXNpemU9IjE0IiBsZW5ndGhBZGp1c3Q9InNwYWNpbmciIHRleHRMZW5ndGg9IjExOSIgeD0iMzY5MC41IiB5PSI4NzguMjM0NCI+QWNjZXNzaW5nUmVzb3VyY2U8L3RleHQ+PC9nPjxlbGxpcHNlIGN4PSI4OTgiIGN5PSIzNTYiIGZpbGw9IiMyMjIyMjIiIHJ4PSIxMCIgcnk9IjEwIiBzdHlsZT0ic3Ryb2tlOiMyMjIyMjI7c3Ryb2tlLXdpZHRoOjEuMDsiLz48ZyBpZD0iTG9nZ2VkT3V0LkxvZ2dlZEluLk1lbnRvcnNoaXAuU2VhcmNoaW5nTWVudG9ycyI+PHJlY3QgZmlsbD0iI0YxRjFGMSIgaGVpZ2h0PSI1MCIgcng9IjEyLjUiIHJ5PSIxMi41IiBzdHlsZT0ic3Ryb2tlOiMxODE4MTg7c3Ryb2tlLXdpZHRoOjAuNTsiIHdpZHRoPSIxMzIiIHg9IjgzMiIgeT0iNDQ3Ii8+PGxpbmUgc3R5bGU9InN0cm9rZTojMTgxODE4O3N0cm9rZS13aWR0aDowLjU7IiB4MT0iODMyIiB4Mj0iOTY0IiB5MT0iNDcxLjk4NDQiIHkyPSI0NzEuOTg0NCIvPjx0ZXh0IGZpbGw9IiMwMDAwMDAiIGZvbnQtZmFtaWx5PSJzYW5zLXNlcmlmIiBmb250LXNpemU9IjE0IiBsZW5ndGhBZGp1c3Q9InNwYWNpbmciIHRleHRMZW5ndGg9IjExMiIgeD0iODQyIiB5PSI0NjUuMjM0NCI+U2VhcmNoaW5nTWVudG9yczwvdGV4dD48L2c+PGcgaWQ9IkxvZ2dlZE91dC5Mb2dnZWRJbi5NZW50b3JzaGlwLlZpZXdpbmdNZW50b3JEZXRhaWxzIj48cmVjdCBmaWxsPSIjRjFGMUYxIiBoZWlnaHQ9IjUwIiByeD0iMTIuNSIgcnk9IjEyLjUiIHN0eWxlPSJzdHJva2U6IzE4MTgxODtzdHJva2Utd2lkdGg6MC41OyIgd2lkdGg9IjE2MSIgeD0iODMyLjUiIHk9IjU5MiIvPjxsaW5lIHN0eWxlPSJzdHJva2U6IzE4MTgxODtzdHJva2Utd2lkdGg6MC41OyIgeDE9IjgzMi41IiB4Mj0iOTkzLjUiIHkxPSI2MTYuOTg0NCIgeTI9IjYxNi45ODQ0Ii8+PHRleHQgZmlsbD0iIzAwMDAwMCIgZm9udC1mYW1pbHk9InNhbnMtc2VyaWYiIGZvbnQtc2l6ZT0iMTQiIGxlbmd0aEFkanVzdD0ic3BhY2luZyIgdGV4dExlbmd0aD0iMTQxIiB4PSI4NDIuNSIgeT0iNjEwLjIzNDQiPlZpZXdpbmdNZW50b3JEZXRhaWxzPC90ZXh0PjwvZz48ZyBpZD0iTG9nZ2VkT3V0LkxvZ2dlZEluLk1lbnRvcnNoaXAuUmVxdWVzdGluZ01lbnRvcnNoaXAiPjxyZWN0IGZpbGw9IiNGMUYxRjEiIGhlaWdodD0iNTAiIHJ4PSIxMi41IiByeT0iMTIuNSIgc3R5bGU9InN0cm9rZTojMTgxODE4O3N0cm9rZS13aWR0aDowLjU7IiB3aWR0aD0iMTYwIiB4PSI4MzIiIHk9IjcxNyIvPjxsaW5lIHN0eWxlPSJzdHJva2U6IzE4MTgxODtzdHJva2Utd2lkdGg6MC41OyIgeDE9IjgzMiIgeDI9Ijk5MiIgeTE9Ijc0MS45ODQ0IiB5Mj0iNzQxLjk4NDQiLz48dGV4dCBmaWxsPSIjMDAwMDAwIiBmb250LWZhbWlseT0ic2Fucy1zZXJpZiIgZm9udC1zaXplPSIxNCIgbGVuZ3RoQWRqdXN0PSJzcGFjaW5nIiB0ZXh0TGVuZ3RoPSIxNDAiIHg9Ijg0MiIgeT0iNzM1LjIzNDQiPlJlcXVlc3RpbmdNZW50b3JzaGlwPC90ZXh0PjwvZz48ZWxsaXBzZSBjeD0iNDEzNCIgY3k9IjYxNyIgZmlsbD0iIzIyMjIyMiIgcng9IjEwIiByeT0iMTAiIHN0eWxlPSJzdHJva2U6IzIyMjIyMjtzdHJva2Utd2lkdGg6MS4wOyIvPjxnIGlkPSJMb2dnZWRPdXQuTG9nZ2VkSW4uRmVlZGJhY2suU3VibWl0dGluZ0ZlZWRiYWNrIj48cmVjdCBmaWxsPSIjRjFGMUYxIiBoZWlnaHQ9IjUwIiByeD0iMTIuNSIgcnk9IjEyLjUiIHN0eWxlPSJzdHJva2U6IzE4MTgxODtzdHJva2Utd2lkdGg6MC41OyIgd2lkdGg9IjE0NyIgeD0iNDA2MC41IiB5PSI3MTciLz48bGluZSBzdHlsZT0ic3Ryb2tlOiMxODE4MTg7c3Ryb2tlLXdpZHRoOjAuNTsiIHgxPSI0MDYwLjUiIHgyPSI0MjA3LjUiIHkxPSI3NDEuOTg0NCIgeTI9Ijc0MS45ODQ0Ii8+PHRleHQgZmlsbD0iIzAwMDAwMCIgZm9udC1mYW1pbHk9InNhbnMtc2VyaWYiIGZvbnQtc2l6ZT0iMTQiIGxlbmd0aEFkanVzdD0ic3BhY2luZyIgdGV4dExlbmd0aD0iMTI3IiB4PSI0MDcwLjUiIHk9IjczNS4yMzQ0Ij5TdWJtaXR0aW5nRmVlZGJhY2s8L3RleHQ+PC9nPjxlbGxpcHNlIGN4PSI0MjIiIGN5PSI2MTciIGZpbGw9IiMyMjIyMjIiIHJ4PSIxMCIgcnk9IjEwIiBzdHlsZT0ic3Ryb2tlOiMyMjIyMjI7c3Ryb2tlLXdpZHRoOjEuMDsiLz48ZyBpZD0iTG9nZ2VkT3V0LkxvZ2dlZEluLk5vdGlmaWNhdGlvbnMuVmlld2luZ05vdGlmaWNhdGlvbnMiPjxyZWN0IGZpbGw9IiNGMUYxRjEiIGhlaWdodD0iNTAiIHJ4PSIxMi41IiByeT0iMTIuNSIgc3R5bGU9InN0cm9rZTojMTgxODE4O3N0cm9rZS13aWR0aDowLjU7IiB3aWR0aD0iMTYxIiB4PSIzNDEuNSIgeT0iNzE3Ii8+PGxpbmUgc3R5bGU9InN0cm9rZTojMTgxODE4O3N0cm9rZS13aWR0aDowLjU7IiB4MT0iMzQxLjUiIHgyPSI1MDIuNSIgeTE9Ijc0MS45ODQ0IiB5Mj0iNzQxLjk4NDQiLz48dGV4dCBmaWxsPSIjMDAwMDAwIiBmb250LWZhbWlseT0ic2Fucy1zZXJpZiIgZm9udC1zaXplPSIxNCIgbGVuZ3RoQWRqdXN0PSJzcGFjaW5nIiB0ZXh0TGVuZ3RoPSIxNDEiIHg9IjM1MS41IiB5PSI3MzUuMjM0NCI+Vmlld2luZ05vdGlmaWNhdGlvbnM8L3RleHQ+PC9nPjxnIGlkPSJMb2dnZWRPdXQuTG9nZ2VkSW4uTm90aWZpY2F0aW9ucy5NYXJraW5nQXNSZWFkIj48cmVjdCBmaWxsPSIjRjFGMUYxIiBoZWlnaHQ9IjUwIiByeD0iMTIuNSIgcnk9IjEyLjUiIHN0eWxlPSJzdHJva2U6IzE4MTgxODtzdHJva2Utd2lkdGg6MC41OyIgd2lkdGg9IjExMSIgeD0iMjYzLjUiIHk9Ijg2MCIvPjxsaW5lIHN0eWxlPSJzdHJva2U6IzE4MTgxODtzdHJva2Utd2lkdGg6MC41OyIgeDE9IjI2My41IiB4Mj0iMzc0LjUiIHkxPSI4ODQuOTg0NCIgeTI9Ijg4NC45ODQ0Ii8+PHRleHQgZmlsbD0iIzAwMDAwMCIgZm9udC1mYW1pbHk9InNhbnMtc2VyaWYiIGZvbnQtc2l6ZT0iMTQiIGxlbmd0aEFkanVzdD0ic3BhY2luZyIgdGV4dExlbmd0aD0iOTEiIHg9IjI3My41IiB5PSI4NzguMjM0NCI+TWFya2luZ0FzUmVhZDwvdGV4dD48L2c+PGVsbGlwc2UgY3g9IjMyNjUiIGN5PSI2MTciIGZpbGw9IiMyMjIyMjIiIHJ4PSIxMCIgcnk9IjEwIiBzdHlsZT0ic3Ryb2tlOiMyMjIyMjI7c3Ryb2tlLXdpZHRoOjEuMDsiLz48ZyBpZD0iTG9nZ2VkT3V0LkxvZ2dlZEluLkJhZGdlcy5WaWV3aW5nQmFkZ2VzIj48cmVjdCBmaWxsPSIjRjFGMUYxIiBoZWlnaHQ9IjUwIiByeD0iMTIuNSIgcnk9IjEyLjUiIHN0eWxlPSJzdHJva2U6IzE4MTgxODtzdHJva2Utd2lkdGg6MC41OyIgd2lkdGg9IjExMiIgeD0iMzIwOSIgeT0iNzE3Ii8+PGxpbmUgc3R5bGU9InN0cm9rZTojMTgxODE4O3N0cm9rZS13aWR0aDowLjU7IiB4MT0iMzIwOSIgeDI9IjMzMjEiIHkxPSI3NDEuOTg0NCIgeTI9Ijc0MS45ODQ0Ii8+PHRleHQgZmlsbD0iIzAwMDAwMCIgZm9udC1mYW1pbHk9InNhbnMtc2VyaWYiIGZvbnQtc2l6ZT0iMTQiIGxlbmd0aEFkanVzdD0ic3BhY2luZyIgdGV4dExlbmd0aD0iOTIiIHg9IjMyMTkiIHk9IjczNS4yMzQ0Ij5WaWV3aW5nQmFkZ2VzPC90ZXh0PjwvZz48ZWxsaXBzZSBjeD0iMjgxNSIgY3k9IjQ3MiIgZmlsbD0iIzIyMjIyMiIgcng9IjEwIiByeT0iMTAiIHN0eWxlPSJzdHJva2U6IzIyMjIyMjtzdHJva2Utd2lkdGg6MS4wOyIvPjxnIGlkPSJMb2dnZWRPdXQuTG9nZ2VkSW4uQ2VydGlmaWNhdGUuU2VsZWN0aW5nQ2VydGlmaWNhdGUiPjxyZWN0IGZpbGw9IiNGMUYxRjEiIGhlaWdodD0iNTAiIHJ4PSIxMi41IiByeT0iMTIuNSIgc3R5bGU9InN0cm9rZTojMTgxODE4O3N0cm9rZS13aWR0aDowLjU7IiB3aWR0aD0iMTYwIiB4PSIyNzM1IiB5PSI1OTIiLz48bGluZSBzdHlsZT0ic3Ryb2tlOiMxODE4MTg7c3Ryb2tlLXdpZHRoOjAuNTsiIHgxPSIyNzM1IiB4Mj0iMjg5NSIgeTE9IjYxNi45ODQ0IiB5Mj0iNjE2Ljk4NDQiLz48dGV4dCBmaWxsPSIjMDAwMDAwIiBmb250LWZhbWlseT0ic2Fucy1zZXJpZiIgZm9udC1zaXplPSIxNCIgbGVuZ3RoQWRqdXN0PSJzcGFjaW5nIiB0ZXh0TGVuZ3RoPSIxNDAiIHg9IjI3NDUiIHk9IjYxMC4yMzQ0Ij5TZWxlY3RpbmdDZXJ0aWZpY2F0ZTwvdGV4dD48L2c+PGcgaWQ9IkxvZ2dlZE91dC5Mb2dnZWRJbi5DZXJ0aWZpY2F0ZS5Eb3dubG9hZGluZ0NlcnRpZmljYXRlIj48cmVjdCBmaWxsPSIjRjFGMUYxIiBoZWlnaHQ9IjUwIiByeD0iMTIuNSIgcnk9IjEyLjUiIHN0eWxlPSJzdHJva2U6IzE4MTgxODtzdHJva2Utd2lkdGg6MC41OyIgd2lkdGg9IjE3NSIgeD0iMjczNS41IiB5PSI3MTciLz48bGluZSBzdHlsZT0ic3Ryb2tlOiMxODE4MTg7c3Ryb2tlLXdpZHRoOjAuNTsiIHgxPSIyNzM1LjUiIHgyPSIyOTEwLjUiIHkxPSI3NDEuOTg0NCIgeTI9Ijc0MS45ODQ0Ii8+PHRleHQgZmlsbD0iIzAwMDAwMCIgZm9udC1mYW1pbHk9InNhbnMtc2VyaWYiIGZvbnQtc2l6ZT0iMTQiIGxlbmd0aEFkanVzdD0ic3BhY2luZyIgdGV4dExlbmd0aD0iMTU1IiB4PSIyNzQ1LjUiIHk9IjczNS4yMzQ0Ij5Eb3dubG9hZGluZ0NlcnRpZmljYXRlPC90ZXh0PjwvZz48ZWxsaXBzZSBjeD0iMTE4MyIgY3k9IjYxNyIgZmlsbD0iIzIyMjIyMiIgcng9IjEwIiByeT0iMTAiIHN0eWxlPSJzdHJva2U6IzIyMjIyMjtzdHJva2Utd2lkdGg6MS4wOyIvPjxnIGlkPSJMb2dnZWRPdXQuTG9nZ2VkSW4uU2V0dGluZ3MuVXBkYXRpbmdQcm9maWxlIj48cmVjdCBmaWxsPSIjRjFGMUYxIiBoZWlnaHQ9IjUwIiByeD0iMTIuNSIgcnk9IjEyLjUiIHN0eWxlPSJzdHJva2U6IzE4MTgxODtzdHJva2Utd2lkdGg6MC41OyIgd2lkdGg9IjEyNSIgeD0iMTEyMC41IiB5PSI3MTciLz48bGluZSBzdHlsZT0ic3Ryb2tlOiMxODE4MTg7c3Ryb2tlLXdpZHRoOjAuNTsiIHgxPSIxMTIwLjUiIHgyPSIxMjQ1LjUiIHkxPSI3NDEuOTg0NCIgeTI9Ijc0MS45ODQ0Ii8+PHRleHQgZmlsbD0iIzAwMDAwMCIgZm9udC1mYW1pbHk9InNhbnMtc2VyaWYiIGZvbnQtc2l6ZT0iMTQiIGxlbmd0aEFkanVzdD0ic3BhY2luZyIgdGV4dExlbmd0aD0iMTA1IiB4PSIxMTMwLjUiIHk9IjczNS4yMzQ0Ij5VcGRhdGluZ1Byb2ZpbGU8L3RleHQ+PC9nPjxnIGlkPSJMb2dnZWRPdXQuTG9nZ2VkSW4uU2V0dGluZ3MuQ2hhbmdpbmdQYXNzd29yZCI+PHJlY3QgZmlsbD0iI0YxRjFGMSIgaGVpZ2h0PSI1MCIgcng9IjEyLjUiIHJ5PSIxMi41IiBzdHlsZT0ic3Ryb2tlOiMxODE4MTg7c3Ryb2tlLXdpZHRoOjAuNTsiIHdpZHRoPSIxMzMiIHg9IjExMTcuNSIgeT0iODYwIi8+PGxpbmUgc3R5bGU9InN0cm9rZTojMTgxODE4O3N0cm9rZS13aWR0aDowLjU7IiB4MT0iMTExNy41IiB4Mj0iMTI1MC41IiB5MT0iODg0Ljk4NDQiIHkyPSI4ODQuOTg0NCIvPjx0ZXh0IGZpbGw9IiMwMDAwMDAiIGZvbnQtZmFtaWx5PSJzYW5zLXNlcmlmIiBmb250LXNpemU9IjE0IiBsZW5ndGhBZGp1c3Q9InNwYWNpbmciIHRleHRMZW5ndGg9IjExMyIgeD0iMTEyNy41IiB5PSI4NzguMjM0NCI+Q2hhbmdpbmdQYXNzd29yZDwvdGV4dD48L2c+PGVsbGlwc2UgY3g9IjIyNzciIGN5PSIxMDQ4IiBmaWxsPSIjMjIyMjIyIiByeD0iMTAiIHJ5PSIxMCIgc3R5bGU9InN0cm9rZTojMjIyMjIyO3N0cm9rZS13aWR0aDoxLjA7Ii8+PGVsbGlwc2UgY3g9IjE2IiBjeT0iMTA0OCIgZmlsbD0iIzIyMjIyMiIgcng9IjEwIiByeT0iMTAiIHN0eWxlPSJzdHJva2U6IzIyMjIyMjtzdHJva2Utd2lkdGg6MS4wOyIvPjwhLS1saW5rICpzdGFydCogdG8gTG9nZ2VkT3V0LS0+PGcgaWQ9ImxpbmtfKnN0YXJ0Kl9Mb2dnZWRPdXQiPjxwYXRoIGQ9Ik0yNi4wOCwxMDQ5LjcgQzMxLjE1NzIsMTA1MC4wNTUgMzIuMTEzOSwxMDUwLjEyMTkgNDAuOCwxMDUwLjcyOTEgIiBmaWxsPSJub25lIiBpZD0iKnN0YXJ0Ki10by1Mb2dnZWRPdXQiIHN0eWxlPSJzdHJva2U6IzE4MTgxODtzdHJva2Utd2lkdGg6MS4wOyIvPjxwb2x5Z29uIGZpbGw9IiMxODE4MTgiIHBvaW50cz0iNDYuNzg1NCwxMDUxLjE0NzUsMzguMDg2MiwxMDQ2LjUyOTYsNDEuNzk3NSwxMDUwLjc5ODgsMzcuNTI4MywxMDU0LjUxMDIsNDYuNzg1NCwxMDUxLjE0NzUiIHN0eWxlPSJzdHJva2U6IzE4MTgxODtzdHJva2Utd2lkdGg6MS4wOyIvPjwvZz48IS0tbGluayAqc3RhcnQqTG9nZ2VkT3V0IHRvIEF3YWl0aW5nTG9naW4tLT48ZyBpZD0ibGlua18qc3RhcnQqTG9nZ2VkT3V0X0F3YWl0aW5nTG9naW4iPjxwYXRoIGQ9Ik0yNDE2LDY4LjAxIEMyNDE2LDgxLjg5IDI0MTYsMTAyLjk3IDI0MTYsMTIyLjg0ICIgZmlsbD0ibm9uZSIgaWQ9IipzdGFydCpMb2dnZWRPdXQtdG8tQXdhaXRpbmdMb2dpbiIgc3R5bGU9InN0cm9rZTojMTgxODE4O3N0cm9rZS13aWR0aDoxLjA7Ii8+PHBvbHlnb24gZmlsbD0iIzE4MTgxOCIgcG9pbnRzPSIyNDE2LDEyOC44NCwyNDIwLDExOS44NCwyNDE2LDEyMy44NCwyNDEyLDExOS44NCwyNDE2LDEyOC44NCIgc3R5bGU9InN0cm9rZTojMTgxODE4O3N0cm9rZS13aWR0aDoxLjA7Ii8+PC9nPjwhLS1saW5rIEF3YWl0aW5nTG9naW4gdG8gTG9nZ2VkSW4tLT48ZyBpZD0ibGlua19Bd2FpdGluZ0xvZ2luX0xvZ2dlZEluIj48cGF0aCBkPSJNMjM1OS43OSwxNTQuODUgQzIxNTMuMjgsMTU0LjkgMTQxNy4zMSwxNjAuNDEgODE2LDIzMiBDNzk2LjA2MzgsMjM0LjM3MzcgNzc1LjgzOSwyMzYuOTI2MSA3NTUuNDM4MywyMzkuNjI1OCBDNzQ1LjIzNzksMjQwLjk3NTYgNzM0Ljk5MzUsMjQyLjM2MjIgNzI0LjcxOTEsMjQzLjc4MTggQzcxOS41ODIsMjQ0LjQ5MTYgNzE0LjQzNzMsMjQ1LjIwOTYgNzA5LjI4NjksMjQ1LjkzNTQgQzcwNi43MTE3LDI0Ni4yOTgzIDcwNC4xMzUxLDI0Ni42NjMxIDcwMS41NTczLDI0Ny4wMjk4IEM3MDAuMjY4MywyNDcuMjEzMSA3MDQuOTE4OCwyNDYuNTQ4MSA3MDMuNjI5MywyNDYuNzMyNCAiIGZpbGw9Im5vbmUiIGlkPSJBd2FpdGluZ0xvZ2luLXRvLUxvZ2dlZEluIiBzdHlsZT0ic3Ryb2tlOiMxODE4MTg7c3Ryb2tlLXdpZHRoOjEuMDsiLz48cG9seWdvbiBmaWxsPSIjMTgxODE4IiBwb2ludHM9IjY5Ny42ODk2LDI0Ny41ODEyLDcwNy4xNjUsMjUwLjI2NzgsNzAyLjYzOTMsMjQ2Ljg3MzksNzA2LjAzMzIsMjQyLjM0ODIsNjk3LjY4OTYsMjQ3LjU4MTIiIHN0eWxlPSJzdHJva2U6IzE4MTgxODtzdHJva2Utd2lkdGg6MS4wOyIvPjx0ZXh0IGZpbGw9IiMwMDAwMDAiIGZvbnQtZmFtaWx5PSJzYW5zLXNlcmlmIiBmb250LXNpemU9IjEzIiBsZW5ndGhBZGp1c3Q9InNwYWNpbmciIHRleHRMZW5ndGg9IjExNCIgeD0iMTAzMyIgeT0iMjIyLjI4OTEiPlZhbGlkIGNyZWRlbnRpYWxzPC90ZXh0PjwvZz48IS0tbGluayBBd2FpdGluZ0xvZ2luIHRvIExvZ2dlZE91dC0tPjxnIGlkPSJsaW5rX0F3YWl0aW5nTG9naW5fTG9nZ2VkT3V0Ij48cGF0aCBkPSJNMjQ3Mi4yNSwxNTYuNTcgQzI4MzcuNzcsMTY3LjEgNDg2MSwyMzEuMDIgNDg2MSwzNTUgQzQ4NjEsMzU1IDQ4NjEsMzU1IDQ4NjEsMTA0OSBDNDg2MSwxMTkyLjI2IDIzMDMuMTQ5OSwxMjA2Ljg1NyAyMjgzLjExOTksMTIwNi45NjcgIiBmaWxsPSJub25lIiBpZD0iQXdhaXRpbmdMb2dpbi10by1Mb2dnZWRPdXQiIHN0eWxlPSJzdHJva2U6IzE4MTgxODtzdHJva2Utd2lkdGg6MS4wOyIvPjxwb2x5Z29uIGZpbGw9IiMxODE4MTgiIHBvaW50cz0iMjI3Ny4xMiwxMjA3LDIyODYuMTQxOCwxMjEwLjk1MDUsMjI4Mi4xMTk5LDEyMDYuOTcyNSwyMjg2LjA5NzksMTIwMi45NTA2LDIyNzcuMTIsMTIwNyIgc3R5bGU9InN0cm9rZTojMTgxODE4O3N0cm9rZS13aWR0aDoxLjA7Ii8+PHRleHQgZmlsbD0iIzAwMDAwMCIgZm9udC1mYW1pbHk9InNhbnMtc2VyaWYiIGZvbnQtc2l6ZT0iMTMiIGxlbmd0aEFkanVzdD0ic3BhY2luZyIgdGV4dExlbmd0aD0iMTI3IiB4PSI0ODYyIiB5PSI2ODUuMjg5MSI+SW52YWxpZCBjcmVkZW50aWFsczwvdGV4dD48L2c+PCEtLWxpbmsgKnN0YXJ0KkxvZ2dlZEluIHRvIERhc2hib2FyZC0tPjxnIGlkPSJsaW5rXypzdGFydCpMb2dnZWRJbl9EYXNoYm9hcmQiPjxwYXRoIGQ9Ik0xMzI5LjM0LDc1MS43NSBDMTMzMy42Myw3NjUuOTMgMTM0NC4xOSw3OTMuNjggMTM2NCw4MDcgQzEzODUuNiw4MjEuNTIgMTM5OS45NSw4MDEuMTggMTQyMiw4MTUgQzE0MjguNzksODE5LjI2IDE0MjUuMDcsODI1Ljk4IDE0MzIsODMwIEMxNDk3Ljg3LDg2OC4xNiAyMDI5LjMwMSw4ODAuNDIxNiAyMTg0LjMwMSw4ODMuMjIxNiAiIGZpbGw9Im5vbmUiIGlkPSIqc3RhcnQqTG9nZ2VkSW4tdG8tRGFzaGJvYXJkIiBzdHlsZT0ic3Ryb2tlOiMxODE4MTg7c3Ryb2tlLXdpZHRoOjEuMDsiLz48cG9seWdvbiBmaWxsPSIjMTgxODE4IiBwb2ludHM9IjIxOTAuMyw4ODMuMzMsMjE4MS4zNzM3LDg3OS4xNjgxLDIxODUuMzAwOCw4ODMuMjM5NywyMTgxLjIyOTIsODg3LjE2NjgsMjE5MC4zLDg4My4zMyIgc3R5bGU9InN0cm9rZTojMTgxODE4O3N0cm9rZS13aWR0aDoxLjA7Ii8+PC9nPjwhLS1saW5rIERhc2hib2FyZCB0byBBc3Nlc3NtZW50LS0+PGcgaWQ9ImxpbmtfRGFzaGJvYXJkX0Fzc2Vzc21lbnQiPjxwYXRoIGQ9Ik0yMjE0LjA3LDg1OS45NCBDMjE5NS43Niw4MzIuOTQgMjE3MCw3ODcuMTIgMjE3MCw3NDMgQzIxNzAsNDcxIDIxNzAsNDcxIDIxNzAsNDcxIEMyMTcwLDQzNC4xNTUgMjIwMC4wNCw0MDUuOTYyNSAyMjMwLjU0ODgsMzg2LjgzMTMgQzIyNDUuODAzMSwzNzcuMjY1NiAyMjYxLjE3NDcsMzY5Ljk2NTMgMjI3Mi45NjcsMzY0Ljk4MTQgQzIyNzUuOTE1MSwzNjMuNzM1NCAyMjc4LjYzOTUsMzYyLjYzNDIgMjI4MS4wODI0LDM2MS42Nzg2IEMyMjgyLjMwMzksMzYxLjIwMDggMjI4My40NTUsMzYwLjc1OTQgMjI4NC41Mjg1LDM2MC4zNTQ0IEMyMjg0Ljc5NjksMzYwLjI1MzIgMjI4NS4wNjA0LDM2MC4xNTQzIDIyODUuMzE5LDM2MC4wNTc2IEMyMjg1LjQ0ODMsMzYwLjAwOTMgMjI3OS45NTMyLDM2Mi4wNTQ1IDIyODAuMDgsMzYyLjAwNzMgIiBmaWxsPSJub25lIiBpZD0iRGFzaGJvYXJkLXRvLUFzc2Vzc21lbnQiIHN0eWxlPSJzdHJva2U6IzE4MTgxODtzdHJva2Utd2lkdGg6MS4wOyIvPjxwb2x5Z29uIGZpbGw9IiMxODE4MTgiIHBvaW50cz0iMjI4NS43MDMxLDM1OS45MTQzLDIyNzUuODczMSwzNTkuMzA1MSwyMjgxLjAxNzIsMzYxLjY1ODUsMjI3OC42NjM4LDM2Ni44MDI1LDIyODUuNzAzMSwzNTkuOTE0MyIgc3R5bGU9InN0cm9rZTojMTgxODE4O3N0cm9rZS13aWR0aDoxLjA7Ii8+PHRleHQgZmlsbD0iIzAwMDAwMCIgZm9udC1mYW1pbHk9InNhbnMtc2VyaWYiIGZvbnQtc2l6ZT0iMTMiIGxlbmd0aEFkanVzdD0ic3BhY2luZyIgdGV4dExlbmd0aD0iMTIyIiB4PSIyMTcxIiB5PSI2MjIuNzg5MSI+IlN0YXJ0IEFzc2Vzc21lbnQiPC90ZXh0PjwvZz48IS0tbGluayBEYXNoYm9hcmQgdG8gUm9hZG1hcC0tPjxnIGlkPSJsaW5rX0Rhc2hib2FyZF9Sb2FkbWFwIj48cGF0aCBkPSJNMjI3My43NCw4ODMuOTkgQzIzNzUuMzksODgzLjIgMjY0My40Miw4NzYuNDkgMjg2MSw4MzAgQzI4OTEuMzgsODIzLjUxIDI5MDQuMTQsODI4LjA0IDI5MjcsODA3IEMyOTc1LjMxLDc2Mi41NCAyOTQ0Ljc0LDcyMi4yNSAyOTg3LDY3MiBDMzA0OS42OCw1OTcuNDcgMzA3Ni43NCw1ODEuMTcgMzE2OSw1NTAgQzMzMDEuMjYsNTA1LjMxNSAzNjE0LjA3MjUsNDg2LjA0IDM4OTQuNzgyNSw0NzcuOTQ4OCBDNDAzNS4xMzc1LDQ3My45MDMxIDQxNjcuNDY2OSw0NzIuNjUzNCA0MjY1LjE4ODgsNDcyLjQyMTQgQzQzMTQuMDQ5Nyw0NzIuMzA1NCA0MzU0LjI1ODgsNDcyLjQ0MzggNDM4Mi40OTMyLDQ3Mi42MTQzIEM0Mzk2LjYxMDQsNDcyLjY5OTYgNDQwNy43MzQsNDcyLjc5MjkgNDQxNS40NDg2LDQ3Mi44NjY0IEM0NDE2LjQxMjksNDcyLjg3NTYgNDQxNy4zMjQsNDcyLjg4NDUgNDQxOC4xODA5LDQ3Mi44OTMgQzQ0MTguNjA5NCw0NzIuODk3MyA0NDEzLjAyNDcsNDcyLjg0MDYgNDQxMy40MjYxLDQ3Mi44NDQ2ICIgZmlsbD0ibm9uZSIgaWQ9IkRhc2hib2FyZC10by1Sb2FkbWFwIiBzdHlsZT0ic3Ryb2tlOiMxODE4MTg7c3Ryb2tlLXdpZHRoOjEuMDsiLz48cG9seWdvbiBmaWxsPSIjMTgxODE4IiBwb2ludHM9IjQ0MTkuNDI1OCw0NzIuOTA1NSw0NDEwLjQ2NjgsNDY4LjgxNDQsNDQxNC40MjYsNDcyLjg1NDgsNDQxMC4zODU2LDQ3Ni44MTQsNDQxOS40MjU4LDQ3Mi45MDU1IiBzdHlsZT0ic3Ryb2tlOiMxODE4MTg7c3Ryb2tlLXdpZHRoOjEuMDsiLz48dGV4dCBmaWxsPSIjMDAwMDAwIiBmb250LWZhbWlseT0ic2Fucy1zZXJpZiIgZm9udC1zaXplPSIxMyIgbGVuZ3RoQWRqdXN0PSJzcGFjaW5nIiB0ZXh0TGVuZ3RoPSIxNTciIHg9IjI5ODgiIHk9IjY4NS4yODkxIj4iVmlldy9HZW5lcmF0ZSBSb2FkbWFwIjwvdGV4dD48L2c+PCEtLWxpbmsgRGFzaGJvYXJkIHRvIENvbW11bml0eS0tPjxnIGlkPSJsaW5rX0Rhc2hib2FyZF9Db21tdW5pdHkiPjxwYXRoIGQ9Ik0yMTkwLjE5LDg4My4xNSBDMjEwNy4wNyw4NzkuMDEgMTkyOSw4NTYuODcgMTkyOSw3NDMgQzE5MjksNDcxIDE5MjksNDcxIDE5MjksNDcxIEMxOTI5LDQ0NC45MTUgMTkyMC41MjI1LDQxNi44OSAxOTExLjkxMjUsMzk1LjE1MzggQzE5MDkuNzYsMzg5LjcxOTcgMTkwNy41OTkyLDM4NC42Nzg3IDE5MDUuNTYwNSwzODAuMTU5MyBDMTkwNC41NDEyLDM3Ny44OTk2IDE5MDMuNTUyNCwzNzUuNzcwMyAxOTAyLjYxMDQsMzczLjc4NzUgQzE5MDIuNDkyNywzNzMuNTM5NiAxOTAyLjM3NTcsMzczLjI5NDEgMTkwMi4yNTk0LDM3My4wNTA4IEMxOTAyLjIwMTMsMzcyLjkyOTIgMTkwNC43MzY4LDM3OC4yMTg3IDE5MDQuNjc5MSwzNzguMDk4MiAiIGZpbGw9Im5vbmUiIGlkPSJEYXNoYm9hcmQtdG8tQ29tbXVuaXR5IiBzdHlsZT0ic3Ryb2tlOiMxODE4MTg7c3Ryb2tlLXdpZHRoOjEuMDsiLz48cG9seWdvbiBmaWxsPSIjMTgxODE4IiBwb2ludHM9IjE5MDIuMDg1NiwzNzIuNjg3NywxOTAyLjM2ODgsMzgyLjUzMjUsMTkwNC4yNDY5LDM3Ny4xOTY1LDE5MDkuNTgyOSwzNzkuMDc0NSwxOTAyLjA4NTYsMzcyLjY4NzciIHN0eWxlPSJzdHJva2U6IzE4MTgxODtzdHJva2Utd2lkdGg6MS4wOyIvPjx0ZXh0IGZpbGw9IiMwMDAwMDAiIGZvbnQtZmFtaWx5PSJzYW5zLXNlcmlmIiBmb250LXNpemU9IjEzIiBsZW5ndGhBZGp1c3Q9InNwYWNpbmciIHRleHRMZW5ndGg9IjE2OSIgeD0iMTkzMCIgeT0iNjIyLjc4OTEiPiJKb2luL0FjY2VzcyBDb21tdW5pdGllcyI8L3RleHQ+PC9nPjwhLS1saW5rIERhc2hib2FyZCB0byBSZXNvdXJjZXMtLT48ZyBpZD0ibGlua19EYXNoYm9hcmRfUmVzb3VyY2VzIj48cGF0aCBkPSJNMjI3My42OCw4ODQuMjMgQzI0NjQuMjcsODg0Ljk3IDMyNDcuNTYsODg0LjY1IDMzNDEsODMwIEMzMzkyLjIsODAwLjA1IDMzNjguNzYsNzU3LjYgMzQxMiw3MTcgQzM0NDUuMDM1LDY4NS45NzUgMzQ4OS42NCw2NjEuNTA3NSAzNTI2LjQyMzgsNjQ0LjY1ODcgQzM1NDQuODE1Niw2MzYuMjM0NCAzNTYxLjI1MjIsNjI5LjcxNDcgMzU3My4zMDk1LDYyNS4yMzIzIEMzNTc2LjMyMzksNjI0LjExMTggMzU3OS4wNjQ1LDYyMy4xMTg1IDM1ODEuNDkzNiw2MjIuMjU0NyBDMzU4Mi43MDgxLDYyMS44MjI3IDM1ODMuODQ0Nyw2MjEuNDIzMiAzNTg0Ljg5ODcsNjIxLjA1NjIgQzM1ODUuMTYyMiw2MjAuOTY0NSAzNTc5Ljc1MSw2MjIuODM4NCAzNTgwLjAwNDEsNjIyLjc1MDcgIiBmaWxsPSJub25lIiBpZD0iRGFzaGJvYXJkLXRvLVJlc291cmNlcyIgc3R5bGU9InN0cm9rZTojMTgxODE4O3N0cm9rZS13aWR0aDoxLjA7Ii8+PHBvbHlnb24gZmlsbD0iIzE4MTgxOCIgcG9pbnRzPSIzNTg1LjY3MzcsNjIwLjc4NzEsMzU3NS44NjAyLDYxOS45NTI4LDM1ODAuOTQ5LDYyMi40MjM1LDM1NzguNDc4NCw2MjcuNTEyMywzNTg1LjY3MzcsNjIwLjc4NzEiIHN0eWxlPSJzdHJva2U6IzE4MTgxODtzdHJva2Utd2lkdGg6MS4wOyIvPjx0ZXh0IGZpbGw9IiMwMDAwMDAiIGZvbnQtZmFtaWx5PSJzYW5zLXNlcmlmIiBmb250LXNpemU9IjEzIiBsZW5ndGhBZGp1c3Q9InNwYWNpbmciIHRleHRMZW5ndGg9IjE4OCIgeD0iMzQxMyIgeT0iNzQ3Ljc4OTEiPiJBY2Nlc3MgTGVhcm5pbmcgUmVzb3VyY2VzIjwvdGV4dD48L2c+PCEtLWxpbmsgRGFzaGJvYXJkIHRvIE1lbnRvcnNoaXAtLT48ZyBpZD0ibGlua19EYXNoYm9hcmRfTWVudG9yc2hpcCI+PHBhdGggZD0iTTIxOTAuMjcsODg0LjA5IEMyMDcwLjg4LDg4My41IDE3MzEuMyw4NzUuNjkgMTY0OSw4MDcgQzE2MTUuNjcsNzc5LjE4IDE2MzkuMTgsNzUwLjAzIDE2MTEsNzE3IEMxNTg2LjY3LDY4OC40OCAxNDQ0LjQ3NSw1OTkuNjU3NSAxMzA3LjM0NzUsNTE3LjM4MzggQzEyMzguNzgzNyw0NzYuMjQ2OSAxMTcxLjQ4NjksNDM2Ljc0NzIgMTEyMC44MjM0LDQwNy4yNDExIEMxMDk1LjQ5MTcsMzkyLjQ4OCAxMDc0LjMxODQsMzgwLjIzMzQgMTA1OS4yMjQyLDM3MS41MjE3IEMxMDU1LjQ1MDYsMzY5LjM0MzggMTA1Mi4wNTcsMzY3LjM4NzMgMTA0OS4wNzM0LDM2NS42Njg1IEMxMDQ3LjU4MTYsMzY0LjgwOTIgMTA0Ni4xOTIzLDM2NC4wMDkzIDEwNDQuOTA5MiwzNjMuMjcwOCBDMTA0NC4yNjc2LDM2Mi45MDE2IDEwNDMuNjUyNywzNjIuNTQ3NyAxMDQzLjA2NDcsMzYyLjIwOTUgQzEwNDIuNzcwNywzNjIuMDQwNCAxMDQ3LjY4NDYsMzY0Ljg2NjUgMTA0Ny40MDQyLDM2NC43MDUzICIgZmlsbD0ibm9uZSIgaWQ9IkRhc2hib2FyZC10by1NZW50b3JzaGlwIiBzdHlsZT0ic3Ryb2tlOiMxODE4MTg7c3Ryb2tlLXdpZHRoOjEuMDsiLz48cG9seWdvbiBmaWxsPSIjMTgxODE4IiBwb2ludHM9IjEwNDIuMjAzMSwzNjEuNzEzOSwxMDQ4LjAxMDUsMzY5LjY2ODQsMTA0Ni41Mzc0LDM2NC4yMDY3LDEwNTEuOTk5LDM2Mi43MzM1LDEwNDIuMjAzMSwzNjEuNzEzOSIgc3R5bGU9InN0cm9rZTojMTgxODE4O3N0cm9rZS13aWR0aDoxLjA7Ii8+PHRleHQgZmlsbD0iIzAwMDAwMCIgZm9udC1mYW1pbHk9InNhbnMtc2VyaWYiIGZvbnQtc2l6ZT0iMTMiIGxlbmd0aEFkanVzdD0ic3BhY2luZyIgdGV4dExlbmd0aD0iMTM3IiB4PSIxNTA3IiB5PSI2MjIuNzg5MSI+IlJlcXVlc3QgTWVudG9yc2hpcCI8L3RleHQ+PC9nPjwhLS1saW5rIERhc2hib2FyZCB0byBGZWVkYmFjay0tPjxnIGlkPSJsaW5rX0Rhc2hib2FyZF9GZWVkYmFjayI+PHBhdGggZD0iTTIyNzMuNzUsODgzLjI2IEMyNTQ3LjAzLDg3OC4zOCA0MDcyLjIsODUwLjMgNDE2OCw4MzAgQzQxOTQuMzIsODI0LjQyIDQyMDguNTUsODI5LjAzIDQyMjQsODA3IEM0MjQ3Ljc2NSw3NzMuMTI1IDQyNTAuMDc1LDcyNi44MSA0MjQ2LjI5MjUsNjg4LjUwNzUgQzQyNDUuMzQ2OSw2NzguOTMxOSA0MjQ0LjAyMDUsNjY5Ljg1NyA0MjQyLjU1MzMsNjYxLjYwMjUgQzQyNDEuODE5Nyw2NTcuNDc1MyA0MjQxLjA1MSw2NTMuNTUzMSA0MjQwLjI3Nyw2NDkuODc2IEM0MjQwLjIyODcsNjQ5LjY0NjIgNDI0MS40MjY5LDY1NS4yODY0IDQyNDEuMzc4NSw2NTUuMDU4NSAiIGZpbGw9Im5vbmUiIGlkPSJEYXNoYm9hcmQtdG8tRmVlZGJhY2siIHN0eWxlPSJzdHJva2U6IzE4MTgxODtzdHJva2Utd2lkdGg6MS4wOyIvPjxwb2x5Z29uIGZpbGw9IiMxODE4MTgiIHBvaW50cz0iNDI0MC4xMzE5LDY0OS4xODk0LDQyMzguMDg5LDY1OC44MjQxLDQyNDEuMTcwNyw2NTQuMDgwMyw0MjQ1LjkxNDUsNjU3LjE2Miw0MjQwLjEzMTksNjQ5LjE4OTQiIHN0eWxlPSJzdHJva2U6IzE4MTgxODtzdHJva2Utd2lkdGg6MS4wOyIvPjx0ZXh0IGZpbGw9IiMwMDAwMDAiIGZvbnQtZmFtaWx5PSJzYW5zLXNlcmlmIiBmb250LXNpemU9IjEzIiBsZW5ndGhBZGp1c3Q9InNwYWNpbmciIHRleHRMZW5ndGg9IjExNiIgeD0iNDI0OCIgeT0iNzQ3Ljc4OTEiPiJTdWJtaXQgRmVlZGJhY2siPC90ZXh0PjwvZz48IS0tbGluayBEYXNoYm9hcmQgdG8gTm90aWZpY2F0aW9ucy0tPjxnIGlkPSJsaW5rX0Rhc2hib2FyZF9Ob3RpZmljYXRpb25zIj48cGF0aCBkPSJNMjE5MC4zNCw4ODMuMjYgQzIwMjcuNyw4ODAuMTQgMTQxOS45Niw4NjYuNTkgOTIxLDgzMCBDODU3LjcxLDgyNS4zNiA4NDIuMTgsODIwLjk0IDc3OSw4MTUgQzc2OC4yMyw4MTMuOTkgNjkwLjU3LDgxMy42IDY4Miw4MDcgQzY2NC42MjI1LDc5My42MiA2NTEuNzQwNiw3NzUuMzc5NCA2NDIuMTk0MSw3NTUuNDgwOCBDNjM3LjQyMDgsNzQ1LjUzMTUgNjMzLjQ4MTMsNzM1LjE2NzcgNjMwLjIzMDcsNzI0Ljc4OTcgQzYyOC42MDUzLDcxOS42MDA4IDYyNy4xNTIyLDcxNC40MDgzIDYyNS44NTMxLDcwOS4yNjIyIEM2MjUuMjAzNiw3MDYuNjg5MiA2MjQuNTkyNiw3MDQuMTI3OSA2MjQuMDE3OCw3MDEuNTg0NCBDNjIzLjczMDQsNzAwLjMxMjYgNjI0LjcwNTMsNzA0LjkxMyA2MjQuNDM1OCw3MDMuNjUxICIgZmlsbD0ibm9uZSIgaWQ9IkRhc2hib2FyZC10by1Ob3RpZmljYXRpb25zIiBzdHlsZT0ic3Ryb2tlOiMxODE4MTg7c3Ryb2tlLXdpZHRoOjEuMDsiLz48cG9seWdvbiBmaWxsPSIjMTgxODE4IiBwb2ludHM9IjYyMy4xODI2LDY5Ny43ODMzLDYyMS4xNTA2LDcwNy40MjAzLDYyNC4yMjY5LDcwMi42NzMsNjI4Ljk3NDEsNzA1Ljc0OTMsNjIzLjE4MjYsNjk3Ljc4MzMiIHN0eWxlPSJzdHJva2U6IzE4MTgxODtzdHJva2Utd2lkdGg6MS4wOyIvPjx0ZXh0IGZpbGw9IiMwMDAwMDAiIGZvbnQtZmFtaWx5PSJzYW5zLXNlcmlmIiBmb250LXNpemU9IjEzIiBsZW5ndGhBZGp1c3Q9InNwYWNpbmciIHRleHRMZW5ndGg9IjEzMiIgeD0iNjgzIiB5PSI3NDcuNzg5MSI+IlZpZXcgTm90aWZpY2F0aW9ucyI8L3RleHQ+PC9nPjwhLS1saW5rIERhc2hib2FyZCB0byBCYWRnZXMtLT48ZyBpZD0ibGlua19EYXNoYm9hcmRfQmFkZ2VzIj48cGF0aCBkPSJNMjI3My41NCw4ODMuMDEgQzI0MjAuNTksODc5LjI1IDI5MTAuOTcsODY0LjIxIDI5NzIsODMwIEMzMDI1LjksNzk5Ljc5IDMwMDIuNjcsNzUyLjg0IDMwNTMsNzE3IEMzMDkxLjE0LDY4OS44NCAzMTE2Ljk5LDcxNS42OSAzMTU0LDY4NyBDMzE2My4yMTUsNjc5Ljg1NSAzMTY3Ljk1LDY3NC4wNzc1IDMxNzEuMzg4OCw2NjcuMzUgQzMxNzMuMTA4MSw2NjMuOTg2MiAzMTc0LjUwMzQsNjYwLjM4NSAzMTc1Ljk3MjcsNjU2LjI1NjYgQzMxNzYuMTU2Myw2NTUuNzQwNSAzMTc2LjM0MTEsNjU1LjIxNjIgMzE3Ni41Mjc5LDY1NC42ODMxIEMzMTc2LjYyMTIsNjU0LjQxNjYgMzE3Ni43MTUxLDY1NC4xNDc4IDMxNzYuODA5NSw2NTMuODc2OCBDMzE3Ni44NTY3LDY1My43NDEzIDMxNzQuOTMzNSw2NTkuMjcyNCAzMTc0Ljk4MSw2NTkuMTM1NyAiIGZpbGw9Im5vbmUiIGlkPSJEYXNoYm9hcmQtdG8tQmFkZ2VzIiBzdHlsZT0ic3Ryb2tlOiMxODE4MTg7c3Ryb2tlLXdpZHRoOjEuMDsiLz48cG9seWdvbiBmaWxsPSIjMTgxODE4IiBwb2ludHM9IjMxNzYuOTUxNiw2NTMuNDY4NiwzMTcwLjIxNzYsNjYwLjY1NTUsMzE3NS4zMDk0LDY1OC4xOTEyLDMxNzcuNzczOCw2NjMuMjgzLDMxNzYuOTUxNiw2NTMuNDY4NiIgc3R5bGU9InN0cm9rZTojMTgxODE4O3N0cm9rZS13aWR0aDoxLjA7Ii8+PHRleHQgZmlsbD0iIzAwMDAwMCIgZm9udC1mYW1pbHk9InNhbnMtc2VyaWYiIGZvbnQtc2l6ZT0iMTMiIGxlbmd0aEFkanVzdD0ic3BhY2luZyIgdGV4dExlbmd0aD0iMTM4IiB4PSIzMDU0IiB5PSI3NDcuNzg5MSI+IlZpZXcgRWFybmVkIEJhZGdlcyI8L3RleHQ+PC9nPjwhLS1saW5rIERhc2hib2FyZCB0byBDZXJ0aWZpY2F0ZS0tPjxnIGlkPSJsaW5rX0Rhc2hib2FyZF9DZXJ0aWZpY2F0ZSI+PHBhdGggZD0iTTIyNzMuNjcsODgxLjA1IEMyMzI4LjM0LDg3NS4yMiAyNDI0Ljc0LDg1Ny45NCAyNDg4LDgwNyBDMjU0MS40Niw3NjMuOTUgMjUyNS43Nyw3MjkuNjYgMjU2Myw2NzIgQzI1OTIuNDI1LDYyNi40MjUgMjYyOC43Mzc1LDU3Ny41MDUgMjY1OC4wMyw1MzkuNTczOCBDMjY3Mi42NzYzLDUyMC42MDgxIDI2ODUuNTY3NSw1MDQuMzg5NyAyNjk0Ljk2NTMsNDkyLjcxMDIgQzI2OTcuMzE0OCw0ODkuNzkwMyAyNjk5LjQ0NTksNDg3LjE1NDEgMjcwMS4zMzE1LDQ4NC44Mjk1IEMyNzAxLjgwMjksNDg0LjI0ODQgMjY5OC40NzQ3LDQ4OC4zNDI5IDI2OTguOTE1LDQ4Ny44MDEyICIgZmlsbD0ibm9uZSIgaWQ9IkRhc2hib2FyZC10by1DZXJ0aWZpY2F0ZSIgc3R5bGU9InN0cm9rZTojMTgxODE4O3N0cm9rZS13aWR0aDoxLjA7Ii8+PHBvbHlnb24gZmlsbD0iIzE4MTgxOCIgcG9pbnRzPSIyNzAyLjY5OTIsNDgzLjE0NSwyNjkzLjkxODgsNDg3LjYwNjQsMjY5OS41NDU3LDQ4Ny4wMjUxLDI3MDAuMTI3LDQ5Mi42NTIxLDI3MDIuNjk5Miw0ODMuMTQ1IiBzdHlsZT0ic3Ryb2tlOiMxODE4MTg7c3Ryb2tlLXdpZHRoOjEuMDsiLz48dGV4dCBmaWxsPSIjMDAwMDAwIiBmb250LWZhbWlseT0ic2Fucy1zZXJpZiIgZm9udC1zaXplPSIxMyIgbGVuZ3RoQWRqdXN0PSJzcGFjaW5nIiB0ZXh0TGVuZ3RoPSIxNTQiIHg9IjI1NjQiIHk9IjY4NS4yODkxIj4iRG93bmxvYWQgQ2VydGlmaWNhdGVzIjwvdGV4dD48L2c+PCEtLWxpbmsgRGFzaGJvYXJkIHRvIFNldHRpbmdzLS0+PGcgaWQ9ImxpbmtfRGFzaGJvYXJkX1NldHRpbmdzIj48cGF0aCBkPSJNMjE5MC4zNiw4ODQuMTQgQzIwNDUuNzQsODg0LjAxIDE1NjYuODUsODc4LjA4IDE0MzQsODA3IEMxMzg3LjA3LDc4MS44OSAxMzkwLjE0LDc1Ni45OCAxMzU1LDcxNyBDMTM0MC4zNDUsNzAwLjMyNSAxMzI4LjYwNzUsNjkxLjYwMjUgMTMxOC4xNTI1LDY4Mi4wMzUgQzEzMTIuOTI1LDY3Ny4yNTEzIDEzMDguMDE4MSw2NzIuMjU2MyAxMzAzLjIyNzUsNjY1Ljk1MDMgQzEzMDAuODMyMiw2NjIuNzk3MyAxMjk4LjQ2NTksNjU5LjMxNjYgMTI5Ni4xMDMyLDY1NS4zNzA3IEMxMjk1LjUxMjUsNjU0LjM4NDMgMTI5NC45MjIxLDY1My4zNjg3IDEyOTQuMzMxNCw2NTIuMzIxOSBDMTI5NC4wMzYxLDY1MS43OTg2IDEyOTMuNzQwNyw2NTEuMjY3NCAxMjkzLjQ0NTMsNjUwLjcyODEgQzEyOTMuMjk3NSw2NTAuNDU4NSAxMjk2LjAwMDQsNjU1LjQ2NjQgMTI5NS44NTI3LDY1NS4xOTI3ICIgZmlsbD0ibm9uZSIgaWQ9IkRhc2hib2FyZC10by1TZXR0aW5ncyIgc3R5bGU9InN0cm9rZTojMTgxODE4O3N0cm9rZS13aWR0aDoxLjA7Ii8+PHBvbHlnb24gZmlsbD0iIzE4MTgxOCIgcG9pbnRzPSIxMjkzLjAwMiw2NDkuOTEzMSwxMjkzLjc1ODMsNjU5LjczMjksMTI5NS4zNzc1LDY1NC4zMTI3LDEzMDAuNzk3Nyw2NTUuOTMyLDEyOTMuMDAyLDY0OS45MTMxIiBzdHlsZT0ic3Ryb2tlOiMxODE4MTg7c3Ryb2tlLXdpZHRoOjEuMDsiLz48dGV4dCBmaWxsPSIjMDAwMDAwIiBmb250LWZhbWlseT0ic2Fucy1zZXJpZiIgZm9udC1zaXplPSIxMyIgbGVuZ3RoQWRqdXN0PSJzcGFjaW5nIiB0ZXh0TGVuZ3RoPSIxNzEiIHg9IjE0MzUiIHk9Ijc0Ny43ODkxIj4iTWFuYWdlIEFjY291bnQgU2V0dGluZ3MiPC90ZXh0PjwvZz48IS0tbGluayBEYXNoYm9hcmQgdG8gTG9nb3V0LS0+PGcgaWQ9ImxpbmtfRGFzaGJvYXJkX0xvZ291dCI+PHBhdGggZD0iTTIyMDIuNTksOTEwLjI4IEMyMTg2LjIxLDkyNi45IDIxNzAuNSw5NTAuMDEgMjE3OCw5NzMgQzIxODQuMTE1LDk5MS43NSAyMTk2Ljk3NSwxMDA5LjY5NzUgMjIwOC42MTEzLDEwMjMuMjIxMyBDMjIxMS41MjAzLDEwMjYuNjAyMiAyMjE0LjM1MjksMTAyOS43MDY2IDIyMTYuOTg0NSwxMDMyLjQ3OCBDMjIxOC4zMDAzLDEwMzMuODYzNyAyMjE5LjU2NTgsMTAzNS4xNjYxIDIyMjAuNzY1NSwxMDM2LjM3ODIgQzIyMjEuMzY1NCwxMDM2Ljk4NDMgMjIyMS45NDg4LDEwMzcuNTY3NyAyMjIyLjUxMzgsMTAzOC4xMjc3IEMyMjIyLjc5NjMsMTAzOC40MDc3IDIyMjMuMDc0MiwxMDM4LjY4MTkgMjIyMy4zNDczLDEwMzguOTUgQzIyMjMuNDgzOCwxMDM5LjA4NDEgMjIyMy42MTkyLDEwMzkuMjE2NyAyMjIzLjc1MzIsMTAzOS4zNDc3IEMyMjIzLjgyMDMsMTAzOS40MTMzIDIyMTkuNTkxOCwxMDM1LjI4OSAyMjE5LjY1ODIsMTAzNS4zNTM4ICIgZmlsbD0ibm9uZSIgaWQ9IkRhc2hib2FyZC10by1Mb2dvdXQiIHN0eWxlPSJzdHJva2U6IzE4MTgxODtzdHJva2Utd2lkdGg6MS4wOyIvPjxwb2x5Z29uIGZpbGw9IiMxODE4MTgiIHBvaW50cz0iMjIyMy45NTM0LDEwMzkuNTQzMiwyMjIwLjMwMzYsMTAzMC4zOTU2LDIyMjAuMzc0MSwxMDM2LjA1MiwyMjE0LjcxNzcsMTAzNi4xMjI1LDIyMjMuOTUzNCwxMDM5LjU0MzIiIHN0eWxlPSJzdHJva2U6IzE4MTgxODtzdHJva2Utd2lkdGg6MS4wOyIvPjx0ZXh0IGZpbGw9IiMwMDAwMDAiIGZvbnQtZmFtaWx5PSJzYW5zLXNlcmlmIiBmb250LXNpemU9IjEzIiBsZW5ndGhBZGp1c3Q9InNwYWNpbmciIHRleHRMZW5ndGg9IjYyIiB4PSIyMTc5IiB5PSI5NzEuMjg5MSI+IkxvZyBPdXQiPC90ZXh0PjwvZz48IS0tbGluayAqc3RhcnQqQXNzZXNzbWVudCB0byBTZWxlY3RpbmdBc3Nlc3NtZW50LS0+PGcgaWQ9ImxpbmtfKnN0YXJ0KkFzc2Vzc21lbnRfU2VsZWN0aW5nQXNzZXNzbWVudCI+PHBhdGggZD0iTTIzOTUsMzY2LjMzIEMyMzk1LDM4My43NyAyMzk1LDQxNS44MiAyMzk1LDQ0MC45MiAiIGZpbGw9Im5vbmUiIGlkPSIqc3RhcnQqQXNzZXNzbWVudC10by1TZWxlY3RpbmdBc3Nlc3NtZW50IiBzdHlsZT0ic3Ryb2tlOiMxODE4MTg7c3Ryb2tlLXdpZHRoOjEuMDsiLz48cG9seWdvbiBmaWxsPSIjMTgxODE4IiBwb2ludHM9IjIzOTUsNDQ2LjkyLDIzOTksNDM3LjkyLDIzOTUsNDQxLjkyLDIzOTEsNDM3LjkyLDIzOTUsNDQ2LjkyIiBzdHlsZT0ic3Ryb2tlOiMxODE4MTg7c3Ryb2tlLXdpZHRoOjEuMDsiLz48L2c+PCEtLWxpbmsgU2VsZWN0aW5nQXNzZXNzbWVudCB0byBUYWtpbmdBc3Nlc3NtZW50LS0+PGcgaWQ9ImxpbmtfU2VsZWN0aW5nQXNzZXNzbWVudF9UYWtpbmdBc3Nlc3NtZW50Ij48cGF0aCBkPSJNMjM5NS4xNyw0OTcuMjYgQzIzOTUuMzUsNTIzLjU1IDIzOTUuNjA5LDU1OS4yODAxIDIzOTUuNzg5LDU4NS42MjAxICIgZmlsbD0ibm9uZSIgaWQ9IlNlbGVjdGluZ0Fzc2Vzc21lbnQtdG8tVGFraW5nQXNzZXNzbWVudCIgc3R5bGU9InN0cm9rZTojMTgxODE4O3N0cm9rZS13aWR0aDoxLjA7Ii8+PHBvbHlnb24gZmlsbD0iIzE4MTgxOCIgcG9pbnRzPSIyMzk1LjgzLDU5MS42MiwyMzk5Ljc2ODQsNTgyLjU5MjksMjM5NS43OTU4LDU4Ni42MjAxLDIzOTEuNzY4Niw1ODIuNjQ3NSwyMzk1LjgzLDU5MS42MiIgc3R5bGU9InN0cm9rZTojMTgxODE4O3N0cm9rZS13aWR0aDoxLjA7Ii8+PHRleHQgZmlsbD0iIzAwMDAwMCIgZm9udC1mYW1pbHk9InNhbnMtc2VyaWYiIGZvbnQtc2l6ZT0iMTMiIGxlbmd0aEFkanVzdD0ic3BhY2luZyIgdGV4dExlbmd0aD0iNDciIHg9IjIzOTYiIHk9IjU0MC4yODkxIj4iU3RhcnQiPC90ZXh0PjwvZz48IS0tbGluayBUYWtpbmdBc3Nlc3NtZW50IHRvIFZpZXdpbmdSZXN1bHRzLS0+PGcgaWQ9ImxpbmtfVGFraW5nQXNzZXNzbWVudF9WaWV3aW5nUmVzdWx0cyI+PHBhdGggZD0iTTIzNzYuNzUsNjQyLjEzIEMyMzcwLjgxLDY1MSAyMzY1LjA0LDY2MS40NiAyMzYyLDY3MiBDMjM1Ny43NCw2ODYuNzcgMjM1OS4zNzExLDY5Ny45NDE3IDIzNjQuMjkxMSw3MTEuMjYxNyAiIGZpbGw9Im5vbmUiIGlkPSJUYWtpbmdBc3Nlc3NtZW50LXRvLVZpZXdpbmdSZXN1bHRzIiBzdHlsZT0ic3Ryb2tlOiMxODE4MTg7c3Ryb2tlLXdpZHRoOjEuMDsiLz48cG9seWdvbiBmaWxsPSIjMTgxODE4IiBwb2ludHM9IjIzNjYuMzcsNzE2Ljg5LDIzNjcuMDAzOCw3MDcuMDYxNiwyMzY0LjYzNzYsNzEyLjE5OTcsMjM1OS40OTk0LDcwOS44MzM1LDIzNjYuMzcsNzE2Ljg5IiBzdHlsZT0ic3Ryb2tlOiMxODE4MTg7c3Ryb2tlLXdpZHRoOjEuMDsiLz48dGV4dCBmaWxsPSIjMDAwMDAwIiBmb250LWZhbWlseT0ic2Fucy1zZXJpZiIgZm9udC1zaXplPSIxMyIgbGVuZ3RoQWRqdXN0PSJzcGFjaW5nIiB0ZXh0TGVuZ3RoPSIxMDgiIHg9IjIzNjMiIHk9IjY4NS4yODkxIj4iU3VibWl0IEFuc3dlcnMiPC90ZXh0PjwvZz48IS0tbGluayBWaWV3aW5nUmVzdWx0cyB0byBEYXNoYm9hcmQtLT48ZyBpZD0ibGlua19WaWV3aW5nUmVzdWx0c19EYXNoYm9hcmQiPjxwYXRoIGQ9Ik0yMzU0LjYyLDc2Ny4yNyBDMjM0Mi44Niw3NzkuMzQgMjMyOC4zMSw3OTQuMDggMjMxNSw4MDcgQzIyOTYuNTMsODI0Ljk0IDIyNzkuNjQ2Miw4NDAuNjI5MiAyMjYzLjI1NjIsODU1LjYyOTIgIiBmaWxsPSJub25lIiBpZD0iVmlld2luZ1Jlc3VsdHMtdG8tRGFzaGJvYXJkIiBzdHlsZT0ic3Ryb2tlOiMxODE4MTg7c3Ryb2tlLXdpZHRoOjEuMDsiLz48cG9seWdvbiBmaWxsPSIjMTgxODE4IiBwb2ludHM9IjIyNTguODMsODU5LjY4LDIyNjguMTY5OCw4NTYuNTU0NiwyMjYyLjUxODUsODU2LjMwNDMsMjI2Mi43Njg3LDg1MC42NTMsMjI1OC44Myw4NTkuNjgiIHN0eWxlPSJzdHJva2U6IzE4MTgxODtzdHJva2Utd2lkdGg6MS4wOyIvPjx0ZXh0IGZpbGw9IiMwMDAwMDAiIGZvbnQtZmFtaWx5PSJzYW5zLXNlcmlmIiBmb250LXNpemU9IjEzIiBsZW5ndGhBZGp1c3Q9InNwYWNpbmciIHRleHRMZW5ndGg9Ijk0IiB4PSIyMzA3IiB5PSI4MjguMjg5MSI+IlZpZXcgUmVzdWx0cyI8L3RleHQ+PC9nPjwhLS1saW5rICpzdGFydCpSb2FkbWFwIHRvIEdlbmVyYXRpbmdSb2FkbWFwLS0+PGcgaWQ9ImxpbmtfKnN0YXJ0KlJvYWRtYXBfR2VuZXJhdGluZ1JvYWRtYXAiPjxwYXRoIGQ9Ik00NTIyLDQ4Mi4zOCBDNDUyMiw1MDQuMzggNDUyMiw1NTMuODMgNDUyMiw1ODUuOTYgIiBmaWxsPSJub25lIiBpZD0iKnN0YXJ0KlJvYWRtYXAtdG8tR2VuZXJhdGluZ1JvYWRtYXAiIHN0eWxlPSJzdHJva2U6IzE4MTgxODtzdHJva2Utd2lkdGg6MS4wOyIvPjxwb2x5Z29uIGZpbGw9IiMxODE4MTgiIHBvaW50cz0iNDUyMiw1OTEuOTYsNDUyNiw1ODIuOTYsNDUyMiw1ODYuOTYsNDUxOCw1ODIuOTYsNDUyMiw1OTEuOTYiIHN0eWxlPSJzdHJva2U6IzE4MTgxODtzdHJva2Utd2lkdGg6MS4wOyIvPjwvZz48IS0tbGluayBHZW5lcmF0aW5nUm9hZG1hcCB0byBWaWV3aW5nUm9hZG1hcC0tPjxnIGlkPSJsaW5rX0dlbmVyYXRpbmdSb2FkbWFwX1ZpZXdpbmdSb2FkbWFwIj48cGF0aCBkPSJNNDUyMC41Miw2NDIuMTkgQzQ1MTkuOTgsNjUxLjUgNDUxOS40MSw2NjIuMjQgNDUxOSw2NzIgQzQ1MTguMzcsNjg2Ljg1IDQ1MTguMDI5Niw2OTcuNTAxOSA0NTE3LjY5OTYsNzEwLjczMTkgIiBmaWxsPSJub25lIiBpZD0iR2VuZXJhdGluZ1JvYWRtYXAtdG8tVmlld2luZ1JvYWRtYXAiIHN0eWxlPSJzdHJva2U6IzE4MTgxODtzdHJva2Utd2lkdGg6MS4wOyIvPjxwb2x5Z29uIGZpbGw9IiMxODE4MTgiIHBvaW50cz0iNDUxNy41NSw3MTYuNzMsNDUyMS43NzMyLDcwNy44MzI1LDQ1MTcuNjc0Nyw3MTEuNzMxNiw0NTEzLjc3NTcsNzA3LjYzMzEsNDUxNy41NSw3MTYuNzMiIHN0eWxlPSJzdHJva2U6IzE4MTgxODtzdHJva2Utd2lkdGg6MS4wOyIvPjx0ZXh0IGZpbGw9IiMwMDAwMDAiIGZvbnQtZmFtaWx5PSJzYW5zLXNlcmlmIiBmb250LXNpemU9IjEzIiBsZW5ndGhBZGp1c3Q9InNwYWNpbmciIHRleHRMZW5ndGg9IjEzMSIgeD0iNDUyMCIgeT0iNjg1LjI4OTEiPiJSb2FkbWFwIEdlbmVyYXRlZCI8L3RleHQ+PC9nPjwhLS1saW5rIFZpZXdpbmdSb2FkbWFwIHRvIE1vZGlmeWluZ1JvYWRtYXAtLT48ZyBpZD0ibGlua19WaWV3aW5nUm9hZG1hcF9Nb2RpZnlpbmdSb2FkbWFwIj48cGF0aCBkPSJNNDQ5Ni42Miw3NjcuMiBDNDQ4NC4wOCw3ODUuMiA0NDcyLjQzLDgxMC4wMSA0NDg0LDgzMCBDNDQ5MS4xNyw4NDIuMzggNDQ5Ny4yNzQ4LDg0OC45ODU1IDQ1MDkuNDc0OCw4NTYuNjI1NSAiIGZpbGw9Im5vbmUiIGlkPSJWaWV3aW5nUm9hZG1hcC10by1Nb2RpZnlpbmdSb2FkbWFwIiBzdHlsZT0ic3Ryb2tlOiMxODE4MTg7c3Ryb2tlLXdpZHRoOjEuMDsiLz48cG9seWdvbiBmaWxsPSIjMTgxODE4IiBwb2ludHM9IjQ1MTQuNTYsODU5LjgxLDQ1MDkuMDU1Miw4NTEuNjQzMSw0NTEwLjMyMjQsODU3LjE1NjMsNDUwNC44MDkyLDg1OC40MjM0LDQ1MTQuNTYsODU5LjgxIiBzdHlsZT0ic3Ryb2tlOiMxODE4MTg7c3Ryb2tlLXdpZHRoOjEuMDsiLz48dGV4dCBmaWxsPSIjMDAwMDAwIiBmb250LWZhbWlseT0ic2Fucy1zZXJpZiIgZm9udC1zaXplPSIxMyIgbGVuZ3RoQWRqdXN0PSJzcGFjaW5nIiB0ZXh0TGVuZ3RoPSIxMDkiIHg9IjQ0ODUiIHk9IjgyOC4yODkxIj4iTW9kaWZ5IFJvYWRtYXAiPC90ZXh0PjwvZz48IS0tbGluayBNb2RpZnlpbmdSb2FkbWFwIHRvIFZpZXdpbmdSb2FkbWFwLS0+PGcgaWQ9ImxpbmtfTW9kaWZ5aW5nUm9hZG1hcF9WaWV3aW5nUm9hZG1hcCI+PHBhdGggZD0iTTQ1OTQuODgsODU5LjkgQzQ2MDIuNCw4NDUuOTYgNDYwNy44LDgyOC41NCA0NTk5LDgxNSBDNDU5NC4yMyw4MDcuNjYgNDU4OC4yMiw4MTEuOTYgNDU4MSw4MDcgQzQ1NjQuNjgsNzk1Ljc5IDQ1NTIuOTQ3NSw3ODQuNTU3NCA0NTQxLjE0NzUsNzcxLjUyNzQgIiBmaWxsPSJub25lIiBpZD0iTW9kaWZ5aW5nUm9hZG1hcC10by1WaWV3aW5nUm9hZG1hcCIgc3R5bGU9InN0cm9rZTojMTgxODE4O3N0cm9rZS13aWR0aDoxLjA7Ii8+PHBvbHlnb24gZmlsbD0iIzE4MTgxOCIgcG9pbnRzPSI0NTM3LjEyLDc2Ny4wOCw0NTQwLjE5NjQsNzc2LjQzNjEsNDU0MC40NzYzLDc3MC43ODYxLDQ1NDYuMTI2Miw3NzEuMDY2LDQ1MzcuMTIsNzY3LjA4IiBzdHlsZT0ic3Ryb2tlOiMxODE4MTg7c3Ryb2tlLXdpZHRoOjEuMDsiLz48dGV4dCBmaWxsPSIjMDAwMDAwIiBmb250LWZhbWlseT0ic2Fucy1zZXJpZiIgZm9udC1zaXplPSIxMyIgbGVuZ3RoQWRqdXN0PSJzcGFjaW5nIiB0ZXh0TGVuZ3RoPSI5OCIgeD0iNDYwNCIgeT0iODI4LjI4OTEiPiJTYXZlIENoYW5nZXMiPC90ZXh0PjwvZz48IS0tbGluayBWaWV3aW5nUm9hZG1hcCB0byBEYXNoYm9hcmQtLT48ZyBpZD0ibGlua19WaWV3aW5nUm9hZG1hcF9EYXNoYm9hcmQiPjxwYXRoIGQ9Ik00NTAwLjA3LDc2Ny4xOCBDNDQ4OC41OCw3ODEuNDcgNDQ3Mi4wNSw3OTguNDEgNDQ1Myw4MDcgQzQ0MjYuODIsODE4LjgxIDQzNTIuNDEsODEwLjc3IDQzMjQsODE1IEM0Mjk1LjUzLDgxOS4yNCA0Mjg5LjU0LDgyNi4yNiA0MjYxLDgzMCBDNDA1Ny41OCw4NTYuNjMgMjU1MS4yNTk0LDg3OS40MTM2IDIyNzkuNjk5NCw4ODMuMzIzNiAiIGZpbGw9Im5vbmUiIGlkPSJWaWV3aW5nUm9hZG1hcC10by1EYXNoYm9hcmQiIHN0eWxlPSJzdHJva2U6IzE4MTgxODtzdHJva2Utd2lkdGg6MS4wOyIvPjxwb2x5Z29uIGZpbGw9IiMxODE4MTgiIHBvaW50cz0iMjI3My43LDg4My40MSwyMjgyLjc1NjcsODg3LjI4LDIyNzguNjk5NSw4ODMuMzM4LDIyODIuNjQxNSw4NzkuMjgwOCwyMjczLjcsODgzLjQxIiBzdHlsZT0ic3Ryb2tlOiMxODE4MTg7c3Ryb2tlLXdpZHRoOjEuMDsiLz48dGV4dCBmaWxsPSIjMDAwMDAwIiBmb250LWZhbWlseT0ic2Fucy1zZXJpZiIgZm9udC1zaXplPSIxMyIgbGVuZ3RoQWRqdXN0PSJzcGFjaW5nIiB0ZXh0TGVuZ3RoPSIxNDUiIHg9IjQzMjUiIHk9IjgyOC4yODkxIj4iUmV0dXJuIHRvIERhc2hib2FyZCI8L3RleHQ+PC9nPjwhLS1saW5rICpzdGFydCpDb21tdW5pdHkgdG8gQnJvd3NpbmdDb21tdW5pdGllcy0tPjxnIGlkPSJsaW5rXypzdGFydCpDb21tdW5pdHlfQnJvd3NpbmdDb21tdW5pdGllcyI+PHBhdGggZD0iTTE3NTcsMzY2LjMzIEMxNzU3LDM4My43NyAxNzU3LDQxNS44MiAxNzU3LDQ0MC45MiAiIGZpbGw9Im5vbmUiIGlkPSIqc3RhcnQqQ29tbXVuaXR5LXRvLUJyb3dzaW5nQ29tbXVuaXRpZXMiIHN0eWxlPSJzdHJva2U6IzE4MTgxODtzdHJva2Utd2lkdGg6MS4wOyIvPjxwb2x5Z29uIGZpbGw9IiMxODE4MTgiIHBvaW50cz0iMTc1Nyw0NDYuOTIsMTc2MSw0MzcuOTIsMTc1Nyw0NDEuOTIsMTc1Myw0MzcuOTIsMTc1Nyw0NDYuOTIiIHN0eWxlPSJzdHJva2U6IzE4MTgxODtzdHJva2Utd2lkdGg6MS4wOyIvPjwvZz48IS0tbGluayBCcm93c2luZ0NvbW11bml0aWVzIHRvIFZpZXdpbmdDb21tdW5pdHlEZXRhaWxzLS0+PGcgaWQ9ImxpbmtfQnJvd3NpbmdDb21tdW5pdGllc19WaWV3aW5nQ29tbXVuaXR5RGV0YWlscyI+PHBhdGggZD0iTTE3NTcsNDk3LjI2IEMxNzU3LDUyMy41NSAxNzU3LDU1OS4yOCAxNzU3LDU4NS42MiAiIGZpbGw9Im5vbmUiIGlkPSJCcm93c2luZ0NvbW11bml0aWVzLXRvLVZpZXdpbmdDb21tdW5pdHlEZXRhaWxzIiBzdHlsZT0ic3Ryb2tlOiMxODE4MTg7c3Ryb2tlLXdpZHRoOjEuMDsiLz48cG9seWdvbiBmaWxsPSIjMTgxODE4IiBwb2ludHM9IjE3NTcsNTkxLjYyLDE3NjEsNTgyLjYyLDE3NTcsNTg2LjYyLDE3NTMsNTgyLjYyLDE3NTcsNTkxLjYyIiBzdHlsZT0ic3Ryb2tlOiMxODE4MTg7c3Ryb2tlLXdpZHRoOjEuMDsiLz48dGV4dCBmaWxsPSIjMDAwMDAwIiBmb250LWZhbWlseT0ic2Fucy1zZXJpZiIgZm9udC1zaXplPSIxMyIgbGVuZ3RoQWRqdXN0PSJzcGFjaW5nIiB0ZXh0TGVuZ3RoPSI5MyIgeD0iMTc1OCIgeT0iNTQwLjI4OTEiPiJWaWV3IERldGFpbHMiPC90ZXh0PjwvZz48IS0tbGluayBWaWV3aW5nQ29tbXVuaXR5RGV0YWlscyB0byBKb2luaW5nQ29tbXVuaXR5LS0+PGcgaWQ9ImxpbmtfVmlld2luZ0NvbW11bml0eURldGFpbHNfSm9pbmluZ0NvbW11bml0eSI+PHBhdGggZD0iTTE3MjIuNiw2NDIuMTggQzE3MTMuNTIsNjUwLjQ5IDE3MDQuOSw2NjAuNiAxNzAwLDY3MiBDMTY5My4yMSw2ODcuNzkgMTY5OC41ODg2LDY5OS42NzIgMTcxMC40NDg2LDcxMi40NTIgIiBmaWxsPSJub25lIiBpZD0iVmlld2luZ0NvbW11bml0eURldGFpbHMtdG8tSm9pbmluZ0NvbW11bml0eSIgc3R5bGU9InN0cm9rZTojMTgxODE4O3N0cm9rZS13aWR0aDoxLjA7Ii8+PHBvbHlnb24gZmlsbD0iIzE4MTgxOCIgcG9pbnRzPSIxNzE0LjUzLDcxNi44NSwxNzExLjMzOTksNzA3LjUzMjEsMTcxMS4xMjg4LDcxMy4xODUsMTcwNS40NzU5LDcxMi45NzM5LDE3MTQuNTMsNzE2Ljg1IiBzdHlsZT0ic3Ryb2tlOiMxODE4MTg7c3Ryb2tlLXdpZHRoOjEuMDsiLz48dGV4dCBmaWxsPSIjMDAwMDAwIiBmb250LWZhbWlseT0ic2Fucy1zZXJpZiIgZm9udC1zaXplPSIxMyIgbGVuZ3RoQWRqdXN0PSJzcGFjaW5nIiB0ZXh0TGVuZ3RoPSIxNjgiIHg9IjE3MDEiIHk9IjY4NS4yODkxIj4iSm9pbiBTZWxlY3RlZCBDb21tdW5pdHkiPC90ZXh0PjwvZz48IS0tbGluayBKb2luaW5nQ29tbXVuaXR5IHRvIERhc2hib2FyZC0tPjxnIGlkPSJsaW5rX0pvaW5pbmdDb21tdW5pdHlfRGFzaGJvYXJkIj48cGF0aCBkPSJNMTc0NS4yMiw3NjcuMjQgQzE3NDcuNjEsNzg3LjI4IDE3NTQuMzUsODE0LjgzIDE3NzMsODMwIEMxODM2LjQsODgxLjU5IDIwODMuNjQwMSw4ODUuMzA4NyAyMTg0LjM3MDEsODg0LjY1ODcgIiBmaWxsPSJub25lIiBpZD0iSm9pbmluZ0NvbW11bml0eS10by1EYXNoYm9hcmQiIHN0eWxlPSJzdHJva2U6IzE4MTgxODtzdHJva2Utd2lkdGg6MS4wOyIvPjxwb2x5Z29uIGZpbGw9IiMxODE4MTgiIHBvaW50cz0iMjE5MC4zNyw4ODQuNjIsMjE4MS4zNDQ0LDg4MC42NzgyLDIxODUuMzcwMSw4ODQuNjUyMywyMTgxLjM5Niw4ODguNjc4LDIxOTAuMzcsODg0LjYyIiBzdHlsZT0ic3Ryb2tlOiMxODE4MTg7c3Ryb2tlLXdpZHRoOjEuMDsiLz48dGV4dCBmaWxsPSIjMDAwMDAwIiBmb250LWZhbWlseT0ic2Fucy1zZXJpZiIgZm9udC1zaXplPSIxMyIgbGVuZ3RoQWRqdXN0PSJzcGFjaW5nIiB0ZXh0TGVuZ3RoPSIxNDUiIHg9IjE3NzQiIHk9IjgyOC4yODkxIj4iUmV0dXJuIHRvIERhc2hib2FyZCI8L3RleHQ+PC9nPjwhLS1saW5rICpzdGFydCpSZXNvdXJjZXMgdG8gVmlld2luZ1Jlc291cmNlcy0tPjxnIGlkPSJsaW5rXypzdGFydCpSZXNvdXJjZXNfVmlld2luZ1Jlc291cmNlcyI+PHBhdGggZD0iTTM2OTYsNjI3LjI0IEMzNjk2LDY0Ni4wMiAzNjk2LDY4My4xNCAzNjk2LDcxMC41NyAiIGZpbGw9Im5vbmUiIGlkPSIqc3RhcnQqUmVzb3VyY2VzLXRvLVZpZXdpbmdSZXNvdXJjZXMiIHN0eWxlPSJzdHJva2U6IzE4MTgxODtzdHJva2Utd2lkdGg6MS4wOyIvPjxwb2x5Z29uIGZpbGw9IiMxODE4MTgiIHBvaW50cz0iMzY5Niw3MTYuNTcsMzcwMCw3MDcuNTcsMzY5Niw3MTEuNTcsMzY5Miw3MDcuNTcsMzY5Niw3MTYuNTciIHN0eWxlPSJzdHJva2U6IzE4MTgxODtzdHJva2Utd2lkdGg6MS4wOyIvPjwvZz48IS0tbGluayBWaWV3aW5nUmVzb3VyY2VzIHRvIEFjY2Vzc2luZ1Jlc291cmNlLS0+PGcgaWQ9ImxpbmtfVmlld2luZ1Jlc291cmNlc19BY2Nlc3NpbmdSZXNvdXJjZSI+PHBhdGggZD0iTTM2NjkuMDIsNzY3LjM3IEMzNjUyLjg3LDc4NS4wMiAzNjM3LjY2LDgwOS4zMSAzNjUwLDgzMCBDMzY1Ny40OCw4NDIuNTQgMzY2My44NTMzLDg0OS4yMzkyIDM2NzYuNDQzMyw4NTYuODM5MiAiIGZpbGw9Im5vbmUiIGlkPSJWaWV3aW5nUmVzb3VyY2VzLXRvLUFjY2Vzc2luZ1Jlc291cmNlIiBzdHlsZT0ic3Ryb2tlOiMxODE4MTg7c3Ryb2tlLXdpZHRoOjEuMDsiLz48cG9seWdvbiBmaWxsPSIjMTgxODE4IiBwb2ludHM9IjM2ODEuNTgsODU5Ljk0LDM2NzUuOTQyMiw4NTEuODY0NCwzNjc3LjI5OTUsODU3LjM1NiwzNjcxLjgwNzgsODU4LjcxMzMsMzY4MS41OCw4NTkuOTQiIHN0eWxlPSJzdHJva2U6IzE4MTgxODtzdHJva2Utd2lkdGg6MS4wOyIvPjx0ZXh0IGZpbGw9IiMwMDAwMDAiIGZvbnQtZmFtaWx5PSJzYW5zLXNlcmlmIiBmb250LXNpemU9IjEzIiBsZW5ndGhBZGp1c3Q9InNwYWNpbmciIHRleHRMZW5ndGg9IjExNyIgeD0iMzY1MSIgeT0iODI4LjI4OTEiPiJTZWxlY3QgUmVzb3VyY2UiPC90ZXh0PjwvZz48IS0tbGluayBBY2Nlc3NpbmdSZXNvdXJjZSB0byBWaWV3aW5nUmVzb3VyY2VzLS0+PGcgaWQ9ImxpbmtfQWNjZXNzaW5nUmVzb3VyY2VfVmlld2luZ1Jlc291cmNlcyI+PHBhdGggZD0iTTM3NjYuNjcsODU5Ljk4IEMzNzczLjg2LDg0Ni41NCAzNzc5LjMzLDgyOS41OSAzNzczLDgxNSBDMzc2NC42OSw3OTUuODYgMzc1My4yMTI2LDc4My4yMjg5IDM3MzcuODEyNiw3NzAuOTU4OSAiIGZpbGw9Im5vbmUiIGlkPSJBY2Nlc3NpbmdSZXNvdXJjZS10by1WaWV3aW5nUmVzb3VyY2VzIiBzdHlsZT0ic3Ryb2tlOiMxODE4MTg7c3Ryb2tlLXdpZHRoOjEuMDsiLz48cG9seWdvbiBmaWxsPSIjMTgxODE4IiBwb2ludHM9IjM3MzMuMTIsNzY3LjIyLDM3MzcuNjY2NCw3NzUuOTU2NywzNzM3LjAzMDUsNzcwLjMzNTcsMzc0Mi42NTE1LDc2OS42OTk5LDM3MzMuMTIsNzY3LjIyIiBzdHlsZT0ic3Ryb2tlOiMxODE4MTg7c3Ryb2tlLXdpZHRoOjEuMDsiLz48dGV4dCBmaWxsPSIjMDAwMDAwIiBmb250LWZhbWlseT0ic2Fucy1zZXJpZiIgZm9udC1zaXplPSIxMyIgbGVuZ3RoQWRqdXN0PSJzcGFjaW5nIiB0ZXh0TGVuZ3RoPSIxNTgiIHg9IjM3NzYiIHk9IjgyOC4yODkxIj4iRmluaXNoIFVzaW5nIFJlc291cmNlIjwvdGV4dD48L2c+PCEtLWxpbmsgVmlld2luZ1Jlc291cmNlcyB0byBEYXNoYm9hcmQtLT48ZyBpZD0ibGlua19WaWV3aW5nUmVzb3VyY2VzX0Rhc2hib2FyZCI+PHBhdGggZD0iTTM2NzcuMDIsNzY3LjIyIEMzNjY0LjI4LDc4MS41NCAzNjQ2LjE3LDc5OC40OCAzNjI2LDgwNyBDMzU5OC4xMSw4MTguNzggMzUyMC4wNCw4MTEuMjEgMzQ5MCw4MTUgQzM0NTUuNDEsODE5LjM3IDM0NDcuNjIsODI1Ljg2IDM0MTMsODMwIEMyOTY5LjQ5LDg4My4wNSAyNDMyLjU1OTksODg0Ljk1NDcgMjI3OS43NTk5LDg4NC4zMjQ3ICIgZmlsbD0ibm9uZSIgaWQ9IlZpZXdpbmdSZXNvdXJjZXMtdG8tRGFzaGJvYXJkIiBzdHlsZT0ic3Ryb2tlOiMxODE4MTg7c3Ryb2tlLXdpZHRoOjEuMDsiLz48cG9seWdvbiBmaWxsPSIjMTgxODE4IiBwb2ludHM9IjIyNzMuNzYsODg0LjMsMjI4Mi43NDM0LDg4OC4zMzcxLDIyNzguNzYsODg0LjMyMDYsMjI4Mi43NzY0LDg4MC4zMzcxLDIyNzMuNzYsODg0LjMiIHN0eWxlPSJzdHJva2U6IzE4MTgxODtzdHJva2Utd2lkdGg6MS4wOyIvPjx0ZXh0IGZpbGw9IiMwMDAwMDAiIGZvbnQtZmFtaWx5PSJzYW5zLXNlcmlmIiBmb250LXNpemU9IjEzIiBsZW5ndGhBZGp1c3Q9InNwYWNpbmciIHRleHRMZW5ndGg9IjE0NSIgeD0iMzQ5MSIgeT0iODI4LjI4OTEiPiJSZXR1cm4gdG8gRGFzaGJvYXJkIjwvdGV4dD48L2c+PCEtLWxpbmsgKnN0YXJ0Kk1lbnRvcnNoaXAgdG8gU2VhcmNoaW5nTWVudG9ycy0tPjxnIGlkPSJsaW5rXypzdGFydCpNZW50b3JzaGlwX1NlYXJjaGluZ01lbnRvcnMiPjxwYXRoIGQ9Ik04OTgsMzY2LjMzIEM4OTgsMzgzLjc3IDg5OCw0MTUuODIgODk4LDQ0MC45MiAiIGZpbGw9Im5vbmUiIGlkPSIqc3RhcnQqTWVudG9yc2hpcC10by1TZWFyY2hpbmdNZW50b3JzIiBzdHlsZT0ic3Ryb2tlOiMxODE4MTg7c3Ryb2tlLXdpZHRoOjEuMDsiLz48cG9seWdvbiBmaWxsPSIjMTgxODE4IiBwb2ludHM9Ijg5OCw0NDYuOTIsOTAyLDQzNy45Miw4OTgsNDQxLjkyLDg5NCw0MzcuOTIsODk4LDQ0Ni45MiIgc3R5bGU9InN0cm9rZTojMTgxODE4O3N0cm9rZS13aWR0aDoxLjA7Ii8+PC9nPjwhLS1saW5rIFNlYXJjaGluZ01lbnRvcnMgdG8gVmlld2luZ01lbnRvckRldGFpbHMtLT48ZyBpZD0ibGlua19TZWFyY2hpbmdNZW50b3JzX1ZpZXdpbmdNZW50b3JEZXRhaWxzIj48cGF0aCBkPSJNODMxLjg0LDQ3Ny44MiBDNzc1LjI3LDQ4NC43NiA3MDYuOTYsNTAxLjU2IDczNCw1NDIgQzc1Ni4wNiw1NzQuOTkgNzkwLjAyOTksNTkxLjY3MDUgODI2LjQ3OTksNjAxLjgyMDUgIiBmaWxsPSJub25lIiBpZD0iU2VhcmNoaW5nTWVudG9ycy10by1WaWV3aW5nTWVudG9yRGV0YWlscyIgc3R5bGU9InN0cm9rZTojMTgxODE4O3N0cm9rZS13aWR0aDoxLjA7Ii8+PHBvbHlnb24gZmlsbD0iIzE4MTgxOCIgcG9pbnRzPSI4MzIuMjYsNjAzLjQzLDgyNC42NjI5LDU5Ny4xNjIzLDgyNy40NDMzLDYwMi4wODg3LDgyMi41MTY4LDYwNC44NjkxLDgzMi4yNiw2MDMuNDMiIHN0eWxlPSJzdHJva2U6IzE4MTgxODtzdHJva2Utd2lkdGg6MS4wOyIvPjx0ZXh0IGZpbGw9IiMwMDAwMDAiIGZvbnQtZmFtaWx5PSJzYW5zLXNlcmlmIiBmb250LXNpemU9IjEzIiBsZW5ndGhBZGp1c3Q9InNwYWNpbmciIHRleHRMZW5ndGg9IjE0MSIgeD0iNzM1IiB5PSI1NDAuMjg5MSI+IlZpZXcgTWVudG9yIERldGFpbHMiPC90ZXh0PjwvZz48IS0tbGluayBWaWV3aW5nTWVudG9yRGV0YWlscyB0byBSZXF1ZXN0aW5nTWVudG9yc2hpcC0tPjxnIGlkPSJsaW5rX1ZpZXdpbmdNZW50b3JEZXRhaWxzX1JlcXVlc3RpbmdNZW50b3JzaGlwIj48cGF0aCBkPSJNOTEyLjgsNjQyLjAxIEM5MTIuNjMsNjYzLjU0IDkxMi40MTcxLDY4OC45OTAyIDkxMi4yNDcxLDcxMC42MzAyICIgZmlsbD0ibm9uZSIgaWQ9IlZpZXdpbmdNZW50b3JEZXRhaWxzLXRvLVJlcXVlc3RpbmdNZW50b3JzaGlwIiBzdHlsZT0ic3Ryb2tlOiMxODE4MTg7c3Ryb2tlLXdpZHRoOjEuMDsiLz48cG9seWdvbiBmaWxsPSIjMTgxODE4IiBwb2ludHM9IjkxMi4yLDcxNi42Myw5MTYuMjcwNiw3MDcuNjYxNyw5MTIuMjM5Myw3MTEuNjMwMiw5MDguMjcwOCw3MDcuNTk4OSw5MTIuMiw3MTYuNjMiIHN0eWxlPSJzdHJva2U6IzE4MTgxODtzdHJva2Utd2lkdGg6MS4wOyIvPjx0ZXh0IGZpbGw9IiMwMDAwMDAiIGZvbnQtZmFtaWx5PSJzYW5zLXNlcmlmIiBmb250LXNpemU9IjEzIiBsZW5ndGhBZGp1c3Q9InNwYWNpbmciIHRleHRMZW5ndGg9Ijk3IiB4PSI5MTMiIHk9IjY4NS4yODkxIj4iU2VuZCBSZXF1ZXN0IjwvdGV4dD48L2c+PCEtLWxpbmsgUmVxdWVzdGluZ01lbnRvcnNoaXAgdG8gRGFzaGJvYXJkLS0+PGcgaWQ9ImxpbmtfUmVxdWVzdGluZ01lbnRvcnNoaXBfRGFzaGJvYXJkIj48cGF0aCBkPSJNOTEzLjQ4LDc2Ny4yNSBDOTE2LjEzLDc4Ny41OCA5MjMuMzgsODE1LjU0IDk0Myw4MzAgQzk2OC43MSw4NDguOTUgMTk2Ni4xNzIyLDg3Ni44NDg0IDIxODQuMzkyMiw4ODIuNzI4NCAiIGZpbGw9Im5vbmUiIGlkPSJSZXF1ZXN0aW5nTWVudG9yc2hpcC10by1EYXNoYm9hcmQiIHN0eWxlPSJzdHJva2U6IzE4MTgxODtzdHJva2Utd2lkdGg6MS4wOyIvPjxwb2x5Z29uIGZpbGw9IiMxODE4MTgiIHBvaW50cz0iMjE5MC4zOSw4ODIuODksMjE4MS41MDEsODc4LjY0OSwyMTg1LjM5MTgsODgyLjc1NTMsMjE4MS4yODU1LDg4Ni42NDYxLDIxOTAuMzksODgyLjg5IiBzdHlsZT0ic3Ryb2tlOiMxODE4MTg7c3Ryb2tlLXdpZHRoOjEuMDsiLz48dGV4dCBmaWxsPSIjMDAwMDAwIiBmb250LWZhbWlseT0ic2Fucy1zZXJpZiIgZm9udC1zaXplPSIxMyIgbGVuZ3RoQWRqdXN0PSJzcGFjaW5nIiB0ZXh0TGVuZ3RoPSIxNDUiIHg9Ijk0NCIgeT0iODI4LjI4OTEiPiJSZXR1cm4gdG8gRGFzaGJvYXJkIjwvdGV4dD48L2c+PCEtLWxpbmsgKnN0YXJ0KkZlZWRiYWNrIHRvIFN1Ym1pdHRpbmdGZWVkYmFjay0tPjxnIGlkPSJsaW5rXypzdGFydCpGZWVkYmFja19TdWJtaXR0aW5nRmVlZGJhY2siPjxwYXRoIGQ9Ik00MTM0LDYyNy4yNCBDNDEzNCw2NDYuMDIgNDEzNCw2ODMuMTQgNDEzNCw3MTAuNTcgIiBmaWxsPSJub25lIiBpZD0iKnN0YXJ0KkZlZWRiYWNrLXRvLVN1Ym1pdHRpbmdGZWVkYmFjayIgc3R5bGU9InN0cm9rZTojMTgxODE4O3N0cm9rZS13aWR0aDoxLjA7Ii8+PHBvbHlnb24gZmlsbD0iIzE4MTgxOCIgcG9pbnRzPSI0MTM0LDcxNi41Nyw0MTM4LDcwNy41Nyw0MTM0LDcxMS41Nyw0MTMwLDcwNy41Nyw0MTM0LDcxNi41NyIgc3R5bGU9InN0cm9rZTojMTgxODE4O3N0cm9rZS13aWR0aDoxLjA7Ii8+PC9nPjwhLS1saW5rIFN1Ym1pdHRpbmdGZWVkYmFjayB0byBEYXNoYm9hcmQtLT48ZyBpZD0ibGlua19TdWJtaXR0aW5nRmVlZGJhY2tfRGFzaGJvYXJkIj48cGF0aCBkPSJNNDEwMy45OCw3NjcuMTYgQzQwNzUuODgsNzg4LjE4IDQwMzEuNzYsODE3LjIyIDM5ODgsODMwIEMzOTAzLjE0LDg1NC43OCAyNTM3LjM3OTEsODc4Ljg2OSAyMjc5LjU3OTEsODgzLjIwOSAiIGZpbGw9Im5vbmUiIGlkPSJTdWJtaXR0aW5nRmVlZGJhY2stdG8tRGFzaGJvYXJkIiBzdHlsZT0ic3Ryb2tlOiMxODE4MTg7c3Ryb2tlLXdpZHRoOjEuMDsiLz48cG9seWdvbiBmaWxsPSIjMTgxODE4IiBwb2ludHM9IjIyNzMuNTgsODgzLjMxLDIyODIuNjQ2MSw4ODcuMTU3OSwyMjc4LjU3OTMsODgzLjIyNTgsMjI4Mi41MTE0LDg3OS4xNTkxLDIyNzMuNTgsODgzLjMxIiBzdHlsZT0ic3Ryb2tlOiMxODE4MTg7c3Ryb2tlLXdpZHRoOjEuMDsiLz48dGV4dCBmaWxsPSIjMDAwMDAwIiBmb250LWZhbWlseT0ic2Fucy1zZXJpZiIgZm9udC1zaXplPSIxMyIgbGVuZ3RoQWRqdXN0PSJzcGFjaW5nIiB0ZXh0TGVuZ3RoPSIxMzYiIHg9IjQwMjMiIHk9IjgyOC4yODkxIj4iRmVlZGJhY2sgU3VibWl0dGVkIjwvdGV4dD48L2c+PCEtLWxpbmsgKnN0YXJ0Kk5vdGlmaWNhdGlvbnMgdG8gVmlld2luZ05vdGlmaWNhdGlvbnMtLT48ZyBpZD0ibGlua18qc3RhcnQqTm90aWZpY2F0aW9uc19WaWV3aW5nTm90aWZpY2F0aW9ucyI+PHBhdGggZD0iTTQyMiw2MjcuMjQgQzQyMiw2NDYuMDIgNDIyLDY4My4xNCA0MjIsNzEwLjU3ICIgZmlsbD0ibm9uZSIgaWQ9IipzdGFydCpOb3RpZmljYXRpb25zLXRvLVZpZXdpbmdOb3RpZmljYXRpb25zIiBzdHlsZT0ic3Ryb2tlOiMxODE4MTg7c3Ryb2tlLXdpZHRoOjEuMDsiLz48cG9seWdvbiBmaWxsPSIjMTgxODE4IiBwb2ludHM9IjQyMiw3MTYuNTcsNDI2LDcwNy41Nyw0MjIsNzExLjU3LDQxOCw3MDcuNTcsNDIyLDcxNi41NyIgc3R5bGU9InN0cm9rZTojMTgxODE4O3N0cm9rZS13aWR0aDoxLjA7Ii8+PC9nPjwhLS1saW5rIFZpZXdpbmdOb3RpZmljYXRpb25zIHRvIE1hcmtpbmdBc1JlYWQtLT48ZyBpZD0ibGlua19WaWV3aW5nTm90aWZpY2F0aW9uc19NYXJraW5nQXNSZWFkIj48cGF0aCBkPSJNMzQxLjIzLDc0NS41NCBDMjkwLjA5LDc1MS44NiAyMjcuNDksNzY5LjMgMTk0LDgxNSBDMTcxLjY1LDg0NS40OSAyMTQuNDQ5MSw4NjIuNzY3NCAyNTcuNDI5MSw4NzIuODY3NCAiIGZpbGw9Im5vbmUiIGlkPSJWaWV3aW5nTm90aWZpY2F0aW9ucy10by1NYXJraW5nQXNSZWFkIiBzdHlsZT0ic3Ryb2tlOiMxODE4MTg7c3Ryb2tlLXdpZHRoOjEuMDsiLz48cG9seWdvbiBmaWxsPSIjMTgxODE4IiBwb2ludHM9IjI2My4yNyw4NzQuMjQsMjU1LjQyMzcsODY4LjI4NzIsMjU4LjQwMjYsODczLjA5NjIsMjUzLjU5MzYsODc2LjA3NTEsMjYzLjI3LDg3NC4yNCIgc3R5bGU9InN0cm9rZTojMTgxODE4O3N0cm9rZS13aWR0aDoxLjA7Ii8+PHRleHQgZmlsbD0iIzAwMDAwMCIgZm9udC1mYW1pbHk9InNhbnMtc2VyaWYiIGZvbnQtc2l6ZT0iMTMiIGxlbmd0aEFkanVzdD0ic3BhY2luZyIgdGV4dExlbmd0aD0iMTgzIiB4PSIxOTUiIHk9IjgyOC4yODkxIj4iTWFyayBOb3RpZmljYXRpb24gYXMgUmVhZCI8L3RleHQ+PC9nPjwhLS1saW5rIE1hcmtpbmdBc1JlYWQgdG8gVmlld2luZ05vdGlmaWNhdGlvbnMtLT48ZyBpZD0ibGlua19NYXJraW5nQXNSZWFkX1ZpZXdpbmdOb3RpZmljYXRpb25zIj48cGF0aCBkPSJNMzUzLjI0LDg1OS44OCBDMzYzLjczLDg1MS4zMSAzNzQuNjksODQxLjAzIDM4Myw4MzAgQzM5Ny40NCw4MTAuODMgNDA2LjA0OTcsNzkxLjEzMDMgNDEyLjUxOTcsNzcyLjczMDMgIiBmaWxsPSJub25lIiBpZD0iTWFya2luZ0FzUmVhZC10by1WaWV3aW5nTm90aWZpY2F0aW9ucyIgc3R5bGU9InN0cm9rZTojMTgxODE4O3N0cm9rZS13aWR0aDoxLjA7Ii8+PHBvbHlnb24gZmlsbD0iIzE4MTgxOCIgcG9pbnRzPSI0MTQuNTEsNzY3LjA3LDQwNy43NTEsNzc0LjIzMzUsNDEyLjg1MTQsNzcxLjc4NjksNDE1LjI5OCw3NzYuODg3Myw0MTQuNTEsNzY3LjA3IiBzdHlsZT0ic3Ryb2tlOiMxODE4MTg7c3Ryb2tlLXdpZHRoOjEuMDsiLz48dGV4dCBmaWxsPSIjMDAwMDAwIiBmb250LWZhbWlseT0ic2Fucy1zZXJpZiIgZm9udC1zaXplPSIxMyIgbGVuZ3RoQWRqdXN0PSJzcGFjaW5nIiB0ZXh0TGVuZ3RoPSIxNjciIHg9IjM5MiIgeT0iODI4LjI4OTEiPiJSZXR1cm4gdG8gTm90aWZpY2F0aW9ucyI8L3RleHQ+PC9nPjwhLS1saW5rIFZpZXdpbmdOb3RpZmljYXRpb25zIHRvIERhc2hib2FyZC0tPjxnIGlkPSJsaW5rX1ZpZXdpbmdOb3RpZmljYXRpb25zX0Rhc2hib2FyZCI+PHBhdGggZD0iTTQ0Ni42Miw3NjcuMDEgQzQ2Mi41Myw3ODEuMDUgNDg0LjQzLDc5Ny43OCA1MDcsODA3IEM1MzIuMzEsODE3LjM0IDU0MS4xNCw4MDkuOSA1NjgsODE1IEM1OTUsODIwLjEzIDYwMC43OCw4MjYuMTggNjI4LDgzMCBDNzg2LjU3LDg1Mi4yNCAxOTQ3LjY5MTQsODc3Ljk1MjIgMjE4NC4yNTE0LDg4Mi45OTIyICIgZmlsbD0ibm9uZSIgaWQ9IlZpZXdpbmdOb3RpZmljYXRpb25zLXRvLURhc2hib2FyZCIgc3R5bGU9InN0cm9rZTojMTgxODE4O3N0cm9rZS13aWR0aDoxLjA7Ii8+PHBvbHlnb24gZmlsbD0iIzE4MTgxOCIgcG9pbnRzPSIyMTkwLjI1LDg4My4xMiwyMTgxLjMzNzIsODc4LjkyOTIsMjE4NS4yNTExLDg4My4wMTM1LDIxODEuMTY2OCw4ODYuOTI3NCwyMTkwLjI1LDg4My4xMiIgc3R5bGU9InN0cm9rZTojMTgxODE4O3N0cm9rZS13aWR0aDoxLjA7Ii8+PHRleHQgZmlsbD0iIzAwMDAwMCIgZm9udC1mYW1pbHk9InNhbnMtc2VyaWYiIGZvbnQtc2l6ZT0iMTMiIGxlbmd0aEFkanVzdD0ic3BhY2luZyIgdGV4dExlbmd0aD0iMTQ1IiB4PSI2MjkiIHk9IjgyOC4yODkxIj4iUmV0dXJuIHRvIERhc2hib2FyZCI8L3RleHQ+PC9nPjwhLS1saW5rICpzdGFydCpCYWRnZXMgdG8gVmlld2luZ0JhZGdlcy0tPjxnIGlkPSJsaW5rXypzdGFydCpCYWRnZXNfVmlld2luZ0JhZGdlcyI+PHBhdGggZD0iTTMyNjUsNjI3LjI0IEMzMjY1LDY0Ni4wMiAzMjY1LDY4My4xNCAzMjY1LDcxMC41NyAiIGZpbGw9Im5vbmUiIGlkPSIqc3RhcnQqQmFkZ2VzLXRvLVZpZXdpbmdCYWRnZXMiIHN0eWxlPSJzdHJva2U6IzE4MTgxODtzdHJva2Utd2lkdGg6MS4wOyIvPjxwb2x5Z29uIGZpbGw9IiMxODE4MTgiIHBvaW50cz0iMzI2NSw3MTYuNTcsMzI2OSw3MDcuNTcsMzI2NSw3MTEuNTcsMzI2MSw3MDcuNTcsMzI2NSw3MTYuNTciIHN0eWxlPSJzdHJva2U6IzE4MTgxODtzdHJva2Utd2lkdGg6MS4wOyIvPjwvZz48IS0tbGluayBWaWV3aW5nQmFkZ2VzIHRvIERhc2hib2FyZC0tPjxnIGlkPSJsaW5rX1ZpZXdpbmdCYWRnZXNfRGFzaGJvYXJkIj48cGF0aCBkPSJNMzI0OC43Miw3NjcuMjkgQzMyMzgsNzgxLjI2IDMyMjIuNyw3OTcuOCAzMjA1LDgwNyBDMzE0MC40Nyw4NDAuNTQgMzExNS4zMyw4MjIuNDcgMzA0Myw4MzAgQzI3NDkuMzEsODYwLjU4IDIzOTkuODg0Nyw4NzYuOTk3MiAyMjc5Ljg3NDcsODgyLjA1NzIgIiBmaWxsPSJub25lIiBpZD0iVmlld2luZ0JhZGdlcy10by1EYXNoYm9hcmQiIHN0eWxlPSJzdHJva2U6IzE4MTgxODtzdHJva2Utd2lkdGg6MS4wOyIvPjxwb2x5Z29uIGZpbGw9IiMxODE4MTgiIHBvaW50cz0iMjI3My44OCw4ODIuMzEsMjI4My4wNDA1LDg4NS45MjczLDIyNzguODc1Niw4ODIuMDk5NCwyMjgyLjcwMzUsODc3LjkzNDQsMjI3My44OCw4ODIuMzEiIHN0eWxlPSJzdHJva2U6IzE4MTgxODtzdHJva2Utd2lkdGg6MS4wOyIvPjx0ZXh0IGZpbGw9IiMwMDAwMDAiIGZvbnQtZmFtaWx5PSJzYW5zLXNlcmlmIiBmb250LXNpemU9IjEzIiBsZW5ndGhBZGp1c3Q9InNwYWNpbmciIHRleHRMZW5ndGg9IjE0NSIgeD0iMzE4NyIgeT0iODI4LjI4OTEiPiJSZXR1cm4gdG8gRGFzaGJvYXJkIjwvdGV4dD48L2c+PCEtLWxpbmsgKnN0YXJ0KkNlcnRpZmljYXRlIHRvIFNlbGVjdGluZ0NlcnRpZmljYXRlLS0+PGcgaWQ9ImxpbmtfKnN0YXJ0KkNlcnRpZmljYXRlX1NlbGVjdGluZ0NlcnRpZmljYXRlIj48cGF0aCBkPSJNMjgxNSw0ODIuMzggQzI4MTUsNTA0LjM4IDI4MTUsNTUzLjgzIDI4MTUsNTg1Ljk2ICIgZmlsbD0ibm9uZSIgaWQ9IipzdGFydCpDZXJ0aWZpY2F0ZS10by1TZWxlY3RpbmdDZXJ0aWZpY2F0ZSIgc3R5bGU9InN0cm9rZTojMTgxODE4O3N0cm9rZS13aWR0aDoxLjA7Ii8+PHBvbHlnb24gZmlsbD0iIzE4MTgxOCIgcG9pbnRzPSIyODE1LDU5MS45NiwyODE5LDU4Mi45NiwyODE1LDU4Ni45NiwyODExLDU4Mi45NiwyODE1LDU5MS45NiIgc3R5bGU9InN0cm9rZTojMTgxODE4O3N0cm9rZS13aWR0aDoxLjA7Ii8+PC9nPjwhLS1saW5rIFNlbGVjdGluZ0NlcnRpZmljYXRlIHRvIERvd25sb2FkaW5nQ2VydGlmaWNhdGUtLT48ZyBpZD0ibGlua19TZWxlY3RpbmdDZXJ0aWZpY2F0ZV9Eb3dubG9hZGluZ0NlcnRpZmljYXRlIj48cGF0aCBkPSJNMjc5MS44Myw2NDIuMjEgQzI3ODIuMjksNjU1LjEzIDI3NzQuNTksNjcxLjUzIDI3ODAsNjg3IEMyNzgzLjgsNjk3Ljg2IDI3ODYuOTMwMSw3MDMuNTc2NCAyNzk0LjE5MDEsNzEyLjIxNjQgIiBmaWxsPSJub25lIiBpZD0iU2VsZWN0aW5nQ2VydGlmaWNhdGUtdG8tRG93bmxvYWRpbmdDZXJ0aWZpY2F0ZSIgc3R5bGU9InN0cm9rZTojMTgxODE4O3N0cm9rZS13aWR0aDoxLjA7Ii8+PHBvbHlnb24gZmlsbD0iIzE4MTgxOCIgcG9pbnRzPSIyNzk4LjA1LDcxNi44MSwyNzk1LjMyMjUsNzA3LjM0NjMsMjc5NC44MzM0LDcxMi45ODIsMjc4OS4xOTc3LDcxMi40OTI5LDI3OTguMDUsNzE2LjgxIiBzdHlsZT0ic3Ryb2tlOiMxODE4MTg7c3Ryb2tlLXdpZHRoOjEuMDsiLz48dGV4dCBmaWxsPSIjMDAwMDAwIiBmb250LWZhbWlseT0ic2Fucy1zZXJpZiIgZm9udC1zaXplPSIxMyIgbGVuZ3RoQWRqdXN0PSJzcGFjaW5nIiB0ZXh0TGVuZ3RoPSIxMjkiIHg9IjI3ODEiIHk9IjY4NS4yODkxIj4iRG93bmxvYWQgU2VsZWN0ZWQiPC90ZXh0PjwvZz48IS0tbGluayBEb3dubG9hZGluZ0NlcnRpZmljYXRlIHRvIERhc2hib2FyZC0tPjxnIGlkPSJsaW5rX0Rvd25sb2FkaW5nQ2VydGlmaWNhdGVfRGFzaGJvYXJkIj48cGF0aCBkPSJNMjc5NS44OSw3NjcuMTEgQzI3NzguNzUsNzgxLjAxIDI3NTUuNDcsNzk3LjU1IDI3MzIsODA3IEMyNTcxLjMsODcxLjcyIDIzNjcuMzk5MSw4ODIuMzE3NiAyMjc5LjUxOTEsODgzLjgxNzYgIiBmaWxsPSJub25lIiBpZD0iRG93bmxvYWRpbmdDZXJ0aWZpY2F0ZS10by1EYXNoYm9hcmQiIHN0eWxlPSJzdHJva2U6IzE4MTgxODtzdHJva2Utd2lkdGg6MS4wOyIvPjxwb2x5Z29uIGZpbGw9IiMxODE4MTgiIHBvaW50cz0iMjI3My41Miw4ODMuOTIsMjI4Mi41ODcsODg3Ljc2NTgsMjI3OC41MTkzLDg4My44MzQ3LDIyODIuNDUwNCw4NzkuNzY3LDIyNzMuNTIsODgzLjkyIiBzdHlsZT0ic3Ryb2tlOiMxODE4MTg7c3Ryb2tlLXdpZHRoOjEuMDsiLz48dGV4dCBmaWxsPSIjMDAwMDAwIiBmb250LWZhbWlseT0ic2Fucy1zZXJpZiIgZm9udC1zaXplPSIxMyIgbGVuZ3RoQWRqdXN0PSJzcGFjaW5nIiB0ZXh0TGVuZ3RoPSIxNDUiIHg9IjI3MDciIHk9IjgyOC4yODkxIj4iUmV0dXJuIHRvIERhc2hib2FyZCI8L3RleHQ+PC9nPjwhLS1saW5rICpzdGFydCpTZXR0aW5ncyB0byBVcGRhdGluZ1Byb2ZpbGUtLT48ZyBpZD0ibGlua18qc3RhcnQqU2V0dGluZ3NfVXBkYXRpbmdQcm9maWxlIj48cGF0aCBkPSJNMTE4Myw2MjcuMjQgQzExODMsNjQ2LjAyIDExODMsNjgzLjE0IDExODMsNzEwLjU3ICIgZmlsbD0ibm9uZSIgaWQ9IipzdGFydCpTZXR0aW5ncy10by1VcGRhdGluZ1Byb2ZpbGUiIHN0eWxlPSJzdHJva2U6IzE4MTgxODtzdHJva2Utd2lkdGg6MS4wOyIvPjxwb2x5Z29uIGZpbGw9IiMxODE4MTgiIHBvaW50cz0iMTE4Myw3MTYuNTcsMTE4Nyw3MDcuNTcsMTE4Myw3MTEuNTcsMTE3OSw3MDcuNTcsMTE4Myw3MTYuNTciIHN0eWxlPSJzdHJva2U6IzE4MTgxODtzdHJva2Utd2lkdGg6MS4wOyIvPjwvZz48IS0tbGluayBVcGRhdGluZ1Byb2ZpbGUgdG8gQ2hhbmdpbmdQYXNzd29yZC0tPjxnIGlkPSJsaW5rX1VwZGF0aW5nUHJvZmlsZV9DaGFuZ2luZ1Bhc3N3b3JkIj48cGF0aCBkPSJNMTE1OS44OCw3NjcuMTIgQzExNDYuMzUsNzg0LjIzIDExMzMuMzEsODA3Ljk5IDExNDEsODMwIEMxMTQ0LjgsODQwLjg2IDExNDcuOTMwMSw4NDYuNTc2NCAxMTU1LjE5MDEsODU1LjIxNjQgIiBmaWxsPSJub25lIiBpZD0iVXBkYXRpbmdQcm9maWxlLXRvLUNoYW5naW5nUGFzc3dvcmQiIHN0eWxlPSJzdHJva2U6IzE4MTgxODtzdHJva2Utd2lkdGg6MS4wOyIvPjxwb2x5Z29uIGZpbGw9IiMxODE4MTgiIHBvaW50cz0iMTE1OS4wNSw4NTkuODEsMTE1Ni4zMjI1LDg1MC4zNDYzLDExNTUuODMzNCw4NTUuOTgyLDExNTAuMTk3Nyw4NTUuNDkyOSwxMTU5LjA1LDg1OS44MSIgc3R5bGU9InN0cm9rZTojMTgxODE4O3N0cm9rZS13aWR0aDoxLjA7Ii8+PHRleHQgZmlsbD0iIzAwMDAwMCIgZm9udC1mYW1pbHk9InNhbnMtc2VyaWYiIGZvbnQtc2l6ZT0iMTMiIGxlbmd0aEFkanVzdD0ic3BhY2luZyIgdGV4dExlbmd0aD0iMTE4IiB4PSIxMTQyIiB5PSI4MjguMjg5MSI+IkNoYW5nZSBQYXNzd29yZCI8L3RleHQ+PC9nPjwhLS1saW5rIENoYW5naW5nUGFzc3dvcmQgdG8gRGFzaGJvYXJkLS0+PGcgaWQ9ImxpbmtfQ2hhbmdpbmdQYXNzd29yZF9EYXNoYm9hcmQiPjxwYXRoIGQ9Ik0xMjUwLjc1LDg4NSBDMTQ0OC45LDg4NSAyMDIzLjksODg1IDIxODQuNDcsODg1ICIgZmlsbD0ibm9uZSIgaWQ9IkNoYW5naW5nUGFzc3dvcmQtdG8tRGFzaGJvYXJkIiBzdHlsZT0ic3Ryb2tlOiMxODE4MTg7c3Ryb2tlLXdpZHRoOjEuMDsiLz48cG9seWdvbiBmaWxsPSIjMTgxODE4IiBwb2ludHM9IjIxOTAuNDcsODg1LDIxODEuNDcsODgxLDIxODUuNDcsODg1LDIxODEuNDcsODg5LDIxOTAuNDcsODg1IiBzdHlsZT0ic3Ryb2tlOiMxODE4MTg7c3Ryb2tlLXdpZHRoOjEuMDsiLz48dGV4dCBmaWxsPSIjMDAwMDAwIiBmb250LWZhbWlseT0ic2Fucy1zZXJpZiIgZm9udC1zaXplPSIxMyIgbGVuZ3RoQWRqdXN0PSJzcGFjaW5nIiB0ZXh0TGVuZ3RoPSIxMTgiIHg9IjE2NjEuNSIgeT0iODgwLjI4OTEiPiJTYXZlIGFuZCBSZXR1cm4iPC90ZXh0PjwvZz48IS0tbGluayBVcGRhdGluZ1Byb2ZpbGUgdG8gRGFzaGJvYXJkLS0+PGcgaWQ9ImxpbmtfVXBkYXRpbmdQcm9maWxlX0Rhc2hib2FyZCI+PHBhdGggZD0iTTEyMDUuMTQsNzY3LjIzIEMxMjE3LjU2LDc4MCAxMjMzLjc5LDc5NS4zOCAxMjUwLDgwNyBDMTI1OC45Nyw4MTMuNDMgMTI4My4zNyw4MjcuMDYgMTI5NCw4MzAgQzE0NjYuNDYsODc3LjY1IDIwMjYuMTUsODgzLjI2NTcgMjE4NC40OSw4ODMuOTA1NyAiIGZpbGw9Im5vbmUiIGlkPSJVcGRhdGluZ1Byb2ZpbGUtdG8tRGFzaGJvYXJkIiBzdHlsZT0ic3Ryb2tlOiMxODE4MTg7c3Ryb2tlLXdpZHRoOjEuMDsiLz48cG9seWdvbiBmaWxsPSIjMTgxODE4IiBwb2ludHM9IjIxOTAuNDksODgzLjkzLDIxODEuNTA2Miw4NzkuODkzNywyMTg1LjQ5LDg4My45MDk4LDIxODEuNDczOSw4ODcuODkzNiwyMTkwLjQ5LDg4My45MyIgc3R5bGU9InN0cm9rZTojMTgxODE4O3N0cm9rZS13aWR0aDoxLjA7Ii8+PHRleHQgZmlsbD0iIzAwMDAwMCIgZm9udC1mYW1pbHk9InNhbnMtc2VyaWYiIGZvbnQtc2l6ZT0iMTMiIGxlbmd0aEFkanVzdD0ic3BhY2luZyIgdGV4dExlbmd0aD0iMTE4IiB4PSIxMjk1IiB5PSI4MjguMjg5MSI+IlNhdmUgYW5kIFJldHVybiI8L3RleHQ+PC9nPjwhLS1saW5rICpzdGFydCpMb2dvdXQgdG8gTG9nZ2VkT3V0LS0+PGcgaWQ9ImxpbmtfKnN0YXJ0KkxvZ291dF9Mb2dnZWRPdXQiPjxwYXRoIGQ9Ik0yMjc3LDEwNTguNDEgQzIyNzcsMTA5MS44OSAyMjc3LDExOTcuNDQgMjI3NywxMjAwLjkyICIgZmlsbD0ibm9uZSIgaWQ9IipzdGFydCpMb2dvdXQtdG8tTG9nZ2VkT3V0IiBzdHlsZT0ic3Ryb2tlOiMxODE4MTg7c3Ryb2tlLXdpZHRoOjEuMDsiLz48cG9seWdvbiBmaWxsPSIjMTgxODE4IiBwb2ludHM9IjIyNzcsMTIwNi45MiwyMjgxLDExOTcuOTIsMjI3NywxMjAxLjkyLDIyNzMsMTE5Ny45MiwyMjc3LDEyMDYuOTIiIHN0eWxlPSJzdHJva2U6IzE4MTgxODtzdHJva2Utd2lkdGg6MS4wOyIvPjx0ZXh0IGZpbGw9IiMwMDAwMDAiIGZvbnQtZmFtaWx5PSJzYW5zLXNlcmlmIiBmb250LXNpemU9IjEzIiBsZW5ndGhBZGp1c3Q9InNwYWNpbmciIHRleHRMZW5ndGg9IjEwNCIgeD0iMjI3OCIgeT0iMTE3NS4yODkxIj4iVXNlciBMb2dzIE91dCI8L3RleHQ+PC9nPjwhLS1TUkM9W2RMUEJKbmluNEJ4ZExyWHhoOEl1U3dXNGY1SEtmQXNJbVdOckNBbzduNjlaS3pqQlgyaC1VX3JRRnM4ZGJQQkpQa1J4dmtObloxeV9fSVBkUHZfOWRMWWxhVnVPek1vY0Q2WEMwbDl0SGlwbENHMGxUeTBxdXNrWlB6bmYyYWJjeDlRSjJfODAwd0VhYnFZSFFtUTNFYWdueFl4OEJOLWhNMXpiTkNQczZUT1NyRVA5V0FIRTZsX3ZhOUwyZlJSNmIzN1VoSkg4ZFNjdzFjQ2ZXNnhYclM4VjZFeEVsbzk3UVJxN0hPanBCUlJSYUpGelJiZFYxRUZkYnRybFY0RzVHek5xWEtnQ3FZMGpCcjNrNDJHdHpLZEE1ZERYZVhUSVJQV0JUOGJfSGJHd2F4T3VEdVpxMlZlTkx1ZG5RU2pxNUJOV3R1TGNwd203cEdITktwYkFRT2pzMU5JRDJWXzVQOENxSTlrckduYWllWU5Ebk91RmZqQXZsQ2JSZVJQanYzbWpXQ0NRWVFjVzZDcjlKd2VNcFZJR1M5dE1jSXpZY2d3UkVQSmxpQW5UVjhfYlZSUjIwTmpoRUE0WWZnNXBkNV9tS1dnZEJrbVlqTzlPZGdzVGFQZVU2MFVqaVhFeHY2ZzdLWU53N2hBdTRGNEtXalFwRmxBQ2Z0UWxxbXNEUnNyeEo0SEtjWUJhVDctY3AtYUFxSmhnWkJ5R2Izc19iblF5aEJud3piVFhzbTZpdTB0OXpHUHV4QnEzbGVrQUJMNkZhWENqYWhYSGs3SmR3ejlUSVI1Sm5hTHNfSUVjZVNrWlpzUmRnODREd0lBNV9yS1E1UzRRaXBDZXJxcnBBVklma1AxSGJHbk1mMUNoYXdQUU5QZEtoSHhJUUVGMFRURlJaU0hDeDB4TGZIMnpmRlhoVENrWkRONVo0YktSU2dfb0VUaVRaLU00R2NIM2taTERHRk9SdW9RV2liNUlBbDhpbDZZX0RScHFPOFVLOUJ6dHRCdjhGaThVTUk2ZGFwQVBRUTlGQjRkU0dPczJrMDVkdEtvV0w5OUFMVmtGY1czNmJsam9mbnJpcG1Bc055eElYZmpTOEZxOE5vOUdsdV9hSS02QlcyOU1jS3NtV2RGOFRyZE9ua3V6NmpTOXZuRXN6eTdBVUZzLXd5MHdUUDljQnUwWk1wVTNyTWl0ai03MjJDLThGTE4tbTlYNk9JaGEwVEE5UVNLN0lmdEpfSWpyd19FZDVDemlJRWRpb1Z0eG9BdWxBbUViVGk4N3U1U1FjS0dmV21mU25Vdk04aFhoUmZGZVpsaC1GeEY4RUJvandkcHA1dHZ0aHIxUVlWQWxCc19idW55MF0tLT48L2c+PC9zdmc+;" vertex="1" parent="1">
            <mxGeometry x="-2080" y="-220" width="5011" height="1221" as="geometry" />
          </mxCell>
        </UserObject>
      </root>
    </mxGraphModel>
  </diagram>
</mxfile>
